<svg width="147" height="63" viewBox="0 0 147 63" fill="none" xmlns="http://www.w3.org/2000/svg">
<path d="M22.4199 35.2911C21.9662 36.6777 21.117 37.8691 19.8712 38.8654C18.6253 39.8607 17.1207 40.3593 15.3592 40.3593C13.5977 40.3593 12.0232 39.9484 10.7144 39.1305C9.4056 38.3115 8.4048 37.1645 7.71202 35.6893C7.01924 34.214 6.67383 32.5072 6.67383 30.5659C6.67383 28.3733 7.02612 26.4694 7.73072 24.8562C8.43531 23.243 9.4302 22.0013 10.7134 21.1312C11.9976 20.261 13.4944 19.8264 15.2067 19.8264C17.472 19.8264 19.2148 20.5133 20.437 21.887C21.6572 23.2617 22.2683 25.3469 22.2683 28.1446H10.4487C10.3729 28.8512 10.3355 29.6573 10.3355 30.5649C10.3355 32.2283 10.6062 33.6789 11.1474 34.9127C11.6886 36.1485 12.406 37.1004 13.2996 37.7676C14.1931 38.4357 15.1309 38.7698 16.113 38.7698C17.3214 38.7698 18.3911 38.481 19.323 37.9006C20.254 37.3212 21.0343 36.3505 21.6641 34.9886L22.4189 35.2911H22.4199ZM11.9986 22.2831C11.1425 23.443 10.614 25.1567 10.4123 27.4262H18.644C18.6942 25.4593 18.4108 23.8214 17.7938 22.5108C17.1768 21.2001 16.2645 20.5448 15.0561 20.5448C13.8477 20.5448 12.8528 21.1243 11.9976 22.2841L11.9986 22.2831Z" fill="url(#paint0_linear_556_1489)"/>
<path d="M38.0694 21.2622C38.5477 21.7668 38.8872 22.3975 39.0889 23.1533C39.2907 23.9101 39.391 24.9311 39.391 26.2161V36.3121C39.391 37.3458 39.6046 38.0583 40.0327 38.4485C40.4607 38.8398 41.2037 39.0349 42.2606 39.0349V39.8291C39.9441 39.7286 38.4335 39.6784 37.7289 39.6784C37.0244 39.6784 35.6142 39.7286 33.4994 39.8291V39.0349C34.4304 39.0349 35.0789 38.8398 35.4439 38.4485C35.808 38.0583 35.9911 37.3458 35.9911 36.3121V25.3844C35.9911 23.9732 35.7894 22.8951 35.3869 22.1511C34.9834 21.4081 34.1656 21.0356 32.9326 21.0356C31.9003 21.0356 30.9812 21.3381 30.1762 21.9432C29.3703 22.5482 28.7474 23.3741 28.3075 24.4196C27.8666 25.4662 27.6472 26.632 27.6472 27.917V36.3121C27.6472 37.3458 27.8292 38.0583 28.1943 38.4485C28.5584 38.8398 29.2069 39.0349 30.1388 39.0349V39.8291C28.0241 39.7286 26.6139 39.6784 25.9093 39.6784C25.2047 39.6784 23.6942 39.7286 21.3777 39.8291V39.0349C22.4346 39.0349 23.1775 38.8398 23.6056 38.4485C24.0337 38.0583 24.2472 37.3458 24.2472 36.3121V24.4768C24.2472 23.3179 24.0327 22.4724 23.6056 21.9432C23.1775 21.413 22.4346 21.1489 21.3777 21.1489V20.3546C22.1836 20.4305 22.964 20.468 23.7188 20.468C25.3051 20.468 26.6139 20.2925 27.6462 19.9388V24.4009C28.275 22.7877 29.1498 21.6209 30.2707 20.9035C31.3906 20.1851 32.6561 19.8254 34.0653 19.8254C35.8277 19.8254 37.163 20.3044 38.0694 21.2622Z" fill="url(#paint1_linear_556_1489)"/>
<path d="M56.8179 23.3041C56.503 23.0016 56.3455 22.5611 56.3455 21.9806C56.3455 21.4771 56.4715 20.8966 56.7234 20.2413C56.069 20.5192 55.5523 20.8276 55.1754 21.1676C54.7976 21.5076 54.4581 21.9304 54.156 22.4339C54.7346 23.3169 55.0249 24.4383 55.0249 25.8002C55.0249 27.7918 54.4207 29.2858 53.2122 30.2811C52.0038 31.2774 50.4047 31.775 48.4169 31.775H48.3785C47.5479 32.255 46.9181 32.6955 46.4911 33.0985C46.063 33.5025 45.8494 33.9559 45.8494 34.4594C45.8494 35.2665 46.4537 35.6696 47.6621 35.6696H52.3827C54.094 35.6696 55.51 36.0411 56.6309 36.7851C57.7507 37.5291 58.3117 38.6446 58.3117 40.1317C58.3117 41.3418 57.921 42.4633 57.1406 43.497C56.3603 44.5307 55.2148 45.3615 53.7043 45.9922C52.1937 46.6219 50.3683 46.9372 48.2289 46.9372C46.0896 46.9372 44.207 46.6032 42.7349 45.935C41.2627 45.2669 40.5256 44.2765 40.5256 42.9668C40.5256 42.1095 40.871 41.3655 41.5638 40.7358C42.2556 40.1051 43.219 39.6143 44.453 39.2615L44.6794 39.8666C44.1254 40.043 43.6845 40.3958 43.3578 40.925C43.0301 41.4542 42.8667 42.0464 42.8667 42.7027C42.8667 43.8616 43.3893 44.7505 44.4334 45.3684C45.4775 45.9853 46.8817 46.2947 48.6442 46.2947C50.5828 46.2947 52.2439 45.9222 53.6285 45.1792C55.0131 44.4352 55.7049 43.2822 55.7049 41.7192C55.7049 40.8116 55.3841 40.1051 54.7425 39.6015C54.1008 39.0979 52.9613 38.8457 51.3248 38.8457H48.53C47.0441 38.8457 45.8544 38.6565 44.9618 38.278C44.0683 37.8996 43.6215 37.1428 43.6215 36.0086C43.6215 35.2271 43.9049 34.4831 44.4708 33.7775C45.0376 33.0719 45.9744 32.3781 47.2842 31.6982C45.6231 31.5218 44.2946 30.9414 43.3007 29.9589C42.3058 28.9754 41.8089 27.5898 41.8089 25.7993C41.8089 23.8077 42.4131 22.3137 43.6215 21.3184C44.8299 20.3231 46.4281 19.8245 48.4169 19.8245C50.7826 19.8245 52.5322 20.4798 53.6659 21.7904C54.1441 21.1095 54.7484 20.5488 55.4785 20.1073C56.2087 19.6668 56.9379 19.446 57.6691 19.446C58.3235 19.446 58.8519 19.6353 59.2544 20.0137C59.6569 20.3921 59.8586 20.9341 59.8586 21.6397C59.8586 22.3452 59.6638 22.8754 59.2731 23.2282C58.8824 23.581 58.4485 23.7574 57.9702 23.7574C57.4919 23.7574 57.1328 23.6056 56.8179 23.3041ZM50.7009 29.9027C51.2165 29.1084 51.4754 27.7416 51.4754 25.8002C51.4754 23.8589 51.2165 22.4911 50.7009 21.6978C50.1843 20.9035 49.4226 20.5064 48.4169 20.5064C47.4112 20.5064 46.6475 20.9035 46.1319 21.6978C45.6152 22.4921 45.3574 23.8599 45.3574 25.8002C45.3574 27.7406 45.6152 29.1084 46.1319 29.9027C46.6475 30.697 47.4092 31.0941 48.4169 31.0941C49.4246 31.0941 50.1852 30.697 50.7009 29.9027Z" fill="url(#paint2_linear_556_1489)"/>
<path d="M74.9621 35.2911C74.5085 36.6777 73.6592 37.8691 72.4134 38.8654C71.1676 39.8607 69.6629 40.3593 67.9014 40.3593C66.14 40.3593 64.5655 39.9484 63.2566 39.1305C61.9478 38.3115 60.947 37.1645 60.2543 35.6893C59.5615 34.214 59.2161 32.5072 59.2161 30.5659C59.2161 28.3733 59.5684 26.4694 60.273 24.8562C60.9775 23.243 61.9724 22.0013 63.2557 21.1312C64.5399 20.261 66.0366 19.8264 67.7489 19.8264C70.0142 19.8264 71.757 20.5133 72.9792 21.887C74.1995 23.2617 74.8106 25.3469 74.8106 28.1446H62.9909C62.9152 28.8512 62.8778 29.6573 62.8778 30.5649C62.8778 32.2283 63.1484 33.6789 63.6896 34.9127C64.2309 36.1485 64.9483 37.1004 65.8418 37.7676C66.7353 38.4357 67.6731 38.7698 68.6552 38.7698C69.8637 38.7698 70.9334 38.481 71.8653 37.9006C72.7962 37.3212 73.5766 36.3505 74.2064 34.9886L74.9621 35.2911ZM64.5399 22.2831C63.6837 23.443 63.1553 25.1567 62.9536 27.4262H71.1853C71.2355 25.4593 70.9521 23.8214 70.335 22.5108C69.718 21.2001 68.8058 20.5448 67.5974 20.5448C66.3889 20.5448 65.394 21.1243 64.5389 22.2841L64.5399 22.2831Z" fill="url(#paint3_linear_556_1489)"/>
<path d="M92.1056 21.2622C92.5838 21.7668 92.9233 22.3975 93.1251 23.1533C93.3268 23.9101 93.4272 24.9311 93.4272 26.2161V36.3121C93.4272 37.3458 93.6407 38.0583 94.0688 38.4485C94.4968 38.8398 95.2398 39.0349 96.2967 39.0349V39.8291C93.9802 39.7286 92.4697 39.6784 91.7651 39.6784C91.0605 39.6784 89.6503 39.7286 87.5356 39.8291V39.0349C88.4665 39.0349 89.115 38.8398 89.4811 38.4485C89.8452 38.0583 90.0282 37.3458 90.0282 36.3121V25.3844C90.0282 23.9732 89.8265 22.8951 89.424 22.1511C89.0205 21.4081 88.2028 21.0356 86.9697 21.0356C85.9374 21.0356 85.0183 21.3381 84.2133 21.9432C83.4074 22.5482 82.7845 23.3741 82.3446 24.4196C81.9037 25.4662 81.6843 26.632 81.6843 27.917V36.3121C81.6843 37.3458 81.8663 38.0583 82.2314 38.4485C82.5955 38.8398 83.244 39.0349 84.176 39.0349V39.8291C82.0612 39.7286 80.651 39.6784 79.9464 39.6784C79.2418 39.6784 77.7313 39.7286 75.4148 39.8291V39.0349C76.4717 39.0349 77.2147 38.8398 77.6427 38.4485C78.0708 38.0583 78.2843 37.3458 78.2843 36.3121V24.4768C78.2843 23.3179 78.0698 22.4724 77.6427 21.9432C77.2147 21.413 76.4717 21.1489 75.4148 21.1489V20.3546C76.2207 20.4305 77.0011 20.468 77.7559 20.468C79.3422 20.468 80.651 20.2925 81.6833 19.9388V24.4009C82.3121 22.7877 83.187 21.6209 84.3078 20.9035C85.4277 20.1851 86.6932 19.8254 88.1024 19.8254C89.8648 19.8254 91.1992 20.3044 92.1056 21.2622Z" fill="url(#paint4_linear_556_1489)"/>
<path d="M101.961 36.312C101.961 37.3458 102.175 38.0582 102.603 38.4485C103.031 38.8397 103.774 39.0348 104.831 39.0348V39.8291C102.515 39.7286 100.992 39.6783 100.262 39.6783C99.5315 39.6783 98.0081 39.7286 95.6926 39.8291V39.0348C96.7495 39.0348 97.4925 38.8397 97.9206 38.4485C98.3486 38.0582 98.5622 37.3458 98.5622 36.312V24.4767C98.5622 23.3178 98.3486 22.4723 97.9206 21.9431C97.4925 21.4129 96.7495 21.1488 95.6926 21.1488V20.3546C96.4986 20.4305 97.278 20.4679 98.0337 20.4679C99.6191 20.4679 100.928 20.2925 101.961 19.9387V36.312ZM101.696 11.6195C102.175 12.0984 102.414 12.6661 102.414 13.3214C102.414 13.9767 102.174 14.5443 101.696 15.0233C101.218 15.5022 100.651 15.7417 99.9969 15.7417C99.3425 15.7417 98.7757 15.5022 98.2975 15.0233C97.8192 14.5443 97.5801 13.9777 97.5801 13.3214C97.5801 12.6651 97.8192 12.0984 98.2975 11.6195C98.7757 11.1406 99.3425 10.9011 99.9969 10.9011C100.651 10.9011 101.217 11.1416 101.696 11.6195Z" fill="url(#paint5_linear_556_1489)"/>
<path d="M110.571 20.3921H116.159V21.1479H110.571V35.7819C110.571 36.9161 110.778 37.736 111.194 38.2396C111.609 38.7441 112.206 38.9954 112.987 38.9954C113.767 38.9954 114.434 38.6801 114.988 38.0504C115.542 37.4207 116.008 36.3869 116.386 34.9501L117.141 35.1394C116.511 38.619 114.875 40.3583 112.233 40.3583C111.377 40.3583 110.672 40.2568 110.118 40.0558C109.564 39.8538 109.073 39.5394 108.646 39.1107C108.092 38.5569 107.708 37.876 107.494 37.0689C107.28 36.2618 107.173 35.1778 107.173 33.8169V21.1489H103.547V20.393H107.173V14.6074C108.583 14.5572 109.715 14.3798 110.572 14.0773L110.571 20.3921Z" fill="url(#paint6_linear_556_1489)"/>
<path d="M121.861 36.312C121.861 37.3458 122.074 38.0582 122.502 38.4485C122.93 38.8397 123.673 39.0348 124.73 39.0348V39.8291C122.415 39.7286 120.891 39.6783 120.161 39.6783C119.431 39.6783 117.908 39.7286 115.592 39.8291V39.0348C116.649 39.0348 117.392 38.8397 117.82 38.4485C118.248 38.0582 118.462 37.3458 118.462 36.312V24.4767C118.462 23.3178 118.248 22.4723 117.82 21.9431C117.392 21.4129 116.649 21.1488 115.592 21.1488V20.3546C116.398 20.4305 117.178 20.4679 117.933 20.4679C119.519 20.4679 120.828 20.2925 121.861 19.9387V36.312ZM121.597 11.6195C122.075 12.0984 122.314 12.6661 122.314 13.3214C122.314 13.9767 122.074 14.5443 121.597 15.0233C121.119 15.5022 120.552 15.7417 119.898 15.7417C119.243 15.7417 118.676 15.5022 118.198 15.0233C117.72 14.5443 117.481 13.9777 117.481 13.3214C117.481 12.6651 117.72 12.0984 118.198 11.6195C118.676 11.1406 119.243 10.9011 119.898 10.9011C120.552 10.9011 121.118 11.1416 121.597 11.6195Z" fill="url(#paint7_linear_556_1489)"/>
<path d="M138.212 21.0346C139.395 21.816 139.986 22.7867 139.986 23.9466C139.986 24.6029 139.797 25.1193 139.42 25.4967C139.043 25.8751 138.563 26.0643 137.985 26.0643C137.406 26.0643 136.914 25.8948 136.512 25.5539C136.108 25.2139 135.907 24.7537 135.907 24.1742C135.907 23.6441 136.059 23.1976 136.361 22.832C136.663 22.4674 137.041 22.2211 137.494 22.0949C137.242 21.6416 136.795 21.2632 136.153 20.9607C135.512 20.6581 134.825 20.5074 134.096 20.5074C133.164 20.5074 132.296 20.804 131.49 21.3962C130.684 21.9895 130.018 22.972 129.489 24.3457C128.96 25.7204 128.696 27.5287 128.696 29.7726C128.696 32.8984 129.2 35.1739 130.207 36.5978C131.213 38.0218 132.522 38.7343 134.134 38.7343C135.217 38.7343 136.242 38.4189 137.211 37.7892C138.181 37.1595 138.98 36.1761 139.609 34.8398L140.327 35.1049C139.899 36.5417 139.1 37.7774 137.93 38.8102C136.759 39.8439 135.242 40.3603 133.379 40.3603C131.819 40.3603 130.403 39.9563 129.131 39.1502C127.86 38.3431 126.859 37.1783 126.129 35.6528C125.399 34.1283 125.034 32.3574 125.034 30.3402C125.034 28.323 125.405 26.4831 126.148 24.8946C126.89 23.307 127.93 22.0654 129.264 21.1696C130.598 20.2758 132.121 19.8274 133.833 19.8274C135.545 19.8274 136.98 20.2314 138.214 21.0375L138.212 21.0346Z" fill="url(#paint8_linear_556_1489)"/>
<path d="M45.28 51.3677C44.4229 51.3677 43.5697 51.8742 43.5697 52.6734C43.5697 52.7326 43.5825 52.8114 43.5913 52.8449C43.5411 52.7188 43.5244 52.6025 43.5244 52.4389C43.5244 51.8565 44.0755 51.3303 44.8283 51.1962C44.786 51.0957 44.7575 50.9489 44.7575 50.7695C44.7575 50.6818 44.7702 50.5941 44.7909 50.5064C44.4101 50.3596 44.2684 50.1162 44.2684 49.8826C44.2684 49.5939 44.5154 49.3761 44.8578 49.3761C44.9041 49.3761 44.9503 49.38 44.9956 49.3889C44.6984 49.3968 44.4179 49.5564 44.4179 49.8954C44.4179 50.1053 44.5144 50.331 44.7948 50.4985C44.9366 49.9831 45.464 49.5574 46.0741 49.5574C46.45 49.5574 46.5799 49.725 46.6223 49.9299C46.5347 49.792 46.4136 49.7161 46.1706 49.7161C45.4679 49.7161 44.8834 50.328 44.8834 51.0139C44.8834 51.0809 44.8873 51.1401 44.8962 51.1854C44.9917 51.1726 45.097 51.1647 45.2013 51.1647C45.6274 51.1647 45.8074 51.3194 45.8074 51.5126C45.8074 51.621 45.7484 51.7215 45.6992 51.751C45.7238 51.7215 45.7494 51.6673 45.7494 51.6091C45.7494 51.4337 45.4896 51.3707 45.281 51.3707L45.28 51.3677ZM43.671 52.6734C43.671 52.5936 43.6789 52.5394 43.6917 52.502C43.6917 52.6941 43.9003 53.1593 44.5695 53.1593C45.0842 53.1593 45.7189 52.8991 46.2621 52.3886H46.2828C45.7681 52.9789 45.0792 53.3761 44.5055 53.3761C43.9318 53.3761 43.6701 53.0459 43.6701 52.6724L43.671 52.6734ZM44.9749 51.4258C45.1048 51.5342 45.343 51.6436 45.5437 51.6436C45.6018 51.6436 45.6431 51.6348 45.6776 51.618C45.652 51.689 45.6146 51.7599 45.4729 51.7599C45.3134 51.7599 45.0802 51.5982 44.9749 51.4258ZM45.2593 50.601C45.8025 50.601 46.4717 50.4 46.4717 49.8728C46.513 49.9063 46.5642 49.9654 46.5642 50.0531C46.5642 50.4217 46.0584 50.6562 45.4985 50.6562C45.3312 50.6562 45.1471 50.6483 45.03 50.5813C45.097 50.5941 45.1757 50.601 45.2593 50.601Z" fill="url(#paint9_linear_556_1489)"/>
<path d="M47.3711 51.6811C47.3711 51.6683 47.3711 51.6555 47.3671 51.6437C47.438 51.6762 47.4675 51.7353 47.4675 51.823C47.4675 51.957 47.3888 52.1581 47.2549 52.3552C47.129 52.5394 47.0079 52.6735 46.4352 53.2845L46.3181 53.1179C46.6025 52.8282 46.945 52.4439 47.1034 52.23C47.25 52.0369 47.3711 51.8112 47.3711 51.6811ZM46.3211 52.297C46.7974 51.7235 47.1615 51.4012 47.3238 51.4012C47.4281 51.4012 47.5079 51.5225 47.5079 51.7028C47.4823 51.6151 47.4193 51.5648 47.3484 51.5648C47.1683 51.5648 46.7383 51.8782 46.3407 52.297H46.3211ZM47.868 51.7531C48.1691 51.5018 48.3492 51.4012 48.4998 51.4012C48.6504 51.4012 48.7625 51.5057 48.8216 51.6989C48.7753 51.6023 48.7005 51.5648 48.5923 51.5648C48.2872 51.5648 47.8936 51.8112 47.3543 52.3177C47.5177 52.0999 47.6761 51.9117 47.868 51.7531ZM48.8009 51.8615C48.8009 52.0881 48.6002 52.2714 48.3079 52.5473C47.9861 52.8528 47.8395 52.9957 47.8188 53.1337V53.0332C47.8188 52.7907 47.8857 52.6695 48.1406 52.4222C48.5588 52.0162 48.7005 51.8615 48.7005 51.7018C48.7005 51.6851 48.6966 51.6683 48.6878 51.6604C48.7625 51.6979 48.8009 51.7688 48.8009 51.8615ZM49.1847 52.3887C48.5874 53.0292 48.2528 53.2845 48.0146 53.2845C47.9231 53.2845 47.8769 53.247 47.8769 53.176C47.8769 53.1258 47.9064 53.0677 47.9438 53.0253C47.9477 53.0795 47.9733 53.109 48.0353 53.109C48.2489 53.109 48.7547 52.7868 49.164 52.3897H49.1847V52.3887Z" fill="url(#paint10_linear_556_1489)"/>
<path d="M48.2588 54.3901C48.2588 54.5192 48.2923 54.6532 48.3838 54.7794C48.246 54.6581 48.0955 54.465 48.0955 54.2561C48.0955 53.921 48.4842 53.72 48.9486 53.72C48.5806 53.7988 48.2588 53.992 48.2588 54.3901ZM49.0441 55.0257C48.6928 55.0257 48.3926 54.8375 48.3671 54.4946C48.4507 54.666 48.6633 54.8336 49.0313 54.8336C49.424 54.8336 49.8215 54.5862 49.913 54.3398C49.913 54.7252 49.4948 55.0257 49.0431 55.0257H49.0441ZM49.2616 53.5436C49.2616 53.5771 49.2655 53.5939 49.2695 53.6106C49.2193 53.5692 49.174 53.5061 49.174 53.4056C49.174 53.1622 49.4289 53.0913 49.7762 53.0124C49.6385 53.0124 49.546 52.9198 49.5381 52.7523C49.5588 52.8114 49.6257 52.8528 49.7389 52.8528C49.914 52.8528 50.1354 52.7483 50.349 52.5266C50.5832 52.2842 50.7337 51.9826 50.7337 51.7649C50.7337 51.7274 50.7298 51.6978 50.717 51.6604C50.8046 51.69 50.8587 51.7737 50.8587 51.9028C50.8587 52.1127 50.7131 52.4054 50.4956 52.6311C50.3362 52.7986 50.1699 52.8912 49.9898 52.9612C49.6552 53.0992 49.2616 53.1878 49.2616 53.5436ZM49.9888 54.3556C49.9888 54.1841 49.8806 54.0964 49.6424 53.9161C49.4121 53.7446 49.3413 53.6559 49.3413 53.5229C49.3413 53.4726 49.3501 53.4431 49.358 53.4145C49.4082 53.5436 49.4791 53.582 49.7172 53.7496C49.8924 53.8708 50.0351 54.0097 50.0351 54.2009C50.0351 54.2718 50.0272 54.3812 49.9642 54.4689C49.9809 54.4315 49.9888 54.3901 49.9888 54.3556ZM50.5822 51.5431C50.0646 51.5431 49.4663 52.1669 49.4663 52.7444C49.4663 52.8114 49.4741 52.8617 49.4997 52.907C49.4043 52.8025 49.358 52.6803 49.358 52.5384C49.358 52.0152 49.9888 51.4002 50.4828 51.4002C50.658 51.4002 50.7918 51.4929 50.8508 51.6515C50.7839 51.5845 50.7003 51.5421 50.5832 51.5421L50.5822 51.5431ZM50.8666 51.5983C50.8666 51.3303 51.0752 51.079 51.2966 51.079C51.3675 51.079 51.4305 51.1046 51.4679 51.1667C51.2002 51.1667 50.8695 51.4268 50.8695 51.6732C50.8656 51.6565 50.8666 51.6318 50.8666 51.5983Z" fill="url(#paint11_linear_556_1489)"/>
<path d="M52.1734 51.2544C51.6134 52.0122 51.3163 52.632 51.3123 53.0045C51.3123 53.0676 51.3163 53.1336 51.329 53.172C51.2543 53.0922 51.2001 52.9168 51.2001 52.7828C51.2001 52.5936 51.271 52.359 51.4265 52.0674C51.3005 52.1422 51.1716 52.2221 51.025 52.297L51.0161 52.2842C51.1627 52.1965 51.3084 52.0999 51.4639 51.9915C51.5938 51.7491 51.7778 51.4643 52.0159 51.1292C52.5217 50.4138 53.1486 49.7565 53.4625 49.7565C53.5885 49.7565 53.7174 49.8609 53.7262 50.0117C53.7046 49.9486 53.6249 49.8856 53.555 49.8856C53.2627 49.8856 52.6221 50.6434 52.1753 51.2544H52.1734ZM51.391 52.9996C51.4078 53.0705 51.454 53.108 51.5416 53.108C51.8014 53.108 52.3357 52.7858 52.7579 52.3886H52.7786C52.194 53.0045 51.8004 53.2844 51.5583 53.2844C51.4284 53.2844 51.391 53.2056 51.391 52.9996ZM53.6947 50.1743C53.6947 50.6049 52.7914 51.4682 51.8093 51.8653C52.7668 51.3628 53.5776 50.4749 53.5816 49.994C53.6574 50.0147 53.6947 50.0777 53.6947 50.1743Z" fill="url(#paint12_linear_556_1489)"/>
<path d="M52.8652 52.297H52.8445C53.4133 51.6732 53.7262 51.4012 53.9142 51.4012C54.0224 51.4012 54.1189 51.5018 54.1189 51.6614C54.1189 51.687 54.1149 51.7117 54.11 51.7363C54.1061 51.6102 54.0224 51.5648 53.922 51.5648C53.7046 51.5648 53.3296 51.8329 52.8652 52.297ZM54.048 51.824C54.048 51.9836 53.9683 52.1167 53.6967 52.3847C53.2283 52.8499 53.1407 52.9494 53.0944 53.1297V53.0085C53.0944 52.7454 53.1741 52.6193 53.554 52.2379C53.7843 52.0083 53.9683 51.823 53.9683 51.6979C53.9683 51.6811 53.9555 51.6644 53.9427 51.6555C54.0136 51.6811 54.047 51.7392 54.047 51.823L54.048 51.824ZM55.0262 52.2172C54.6965 52.2172 54.4367 52.4981 54.4367 52.8784C54.4367 53.0075 54.4495 53.0873 54.4908 53.1593C54.3698 53.0331 54.3107 52.8706 54.3107 52.6863C54.3107 52.6606 54.3107 52.6321 54.3147 52.6064C53.985 52.9326 53.554 53.2844 53.2824 53.2844C53.1899 53.2844 53.1525 53.247 53.1525 53.1849C53.1525 53.1386 53.1732 53.0834 53.2194 53.0253C53.2233 53.0755 53.245 53.109 53.2991 53.109C53.6583 53.109 54.0136 52.8459 54.3235 52.569C54.3777 52.2921 54.6207 52.0911 54.8963 52.0911H54.9258C55.1187 51.9442 55.2899 51.7432 55.3942 51.5845C55.3814 51.5382 55.3775 51.488 55.3775 51.4377C55.3775 51.3204 55.4572 51.211 55.5487 51.211C55.5949 51.211 55.6363 51.2317 55.6825 51.2613C55.6323 51.2613 55.5369 51.3825 55.5369 51.5205C55.5369 51.8516 55.7878 52.2408 55.7878 52.6587C55.7878 52.7631 55.7583 52.8637 55.7081 52.9514C55.8754 52.8134 56.0594 52.6252 56.2808 52.3867H56.3015C55.7248 53.0814 55.3814 53.3248 54.972 53.3248C54.7004 53.3248 54.5371 53.1652 54.5371 52.973C54.5371 52.9563 54.5371 52.9435 54.541 52.9267C54.5784 53.0568 54.7418 53.1534 54.9632 53.1534C55.3106 53.1534 55.6363 52.8932 55.6363 52.5375C55.6363 52.1817 55.4818 51.9137 55.4109 51.6634C55.2978 51.8092 55.1137 51.9777 54.9464 52.094C55.0636 52.1068 55.1728 52.161 55.2515 52.2615C55.1846 52.232 55.1049 52.2152 55.0252 52.2152L55.0262 52.2172ZM54.7378 50.601C54.7378 50.7686 54.5705 50.9272 54.3905 50.9272C54.3609 50.9272 54.3157 50.9272 54.2901 50.9065C54.3993 50.8514 54.5617 50.6966 54.5617 50.4877C54.5617 50.4749 54.5617 50.4503 54.5577 50.4414C54.6788 50.4414 54.7378 50.5163 54.7378 50.601Z" fill="url(#paint13_linear_556_1489)"/>
<path d="M57.8899 51.2041C57.4303 51.82 56.7946 52.6862 56.3803 53.2844L56.2632 53.1179L57.5297 51.3884C57.2453 51.6564 56.7729 52.0417 56.3636 52.297L56.3508 52.2842C56.8605 51.9363 57.4421 51.4386 57.6763 51.1913L57.7176 51.1322C58.4498 50.1319 58.7962 49.7555 59.0973 49.7555C59.2557 49.7555 59.3561 49.86 59.3728 50.0107C59.3394 49.9398 59.2764 49.8846 59.18 49.8846C58.9123 49.8846 58.5738 50.2867 57.8879 51.2031L57.8899 51.2041ZM57.7226 51.7481C58.0906 51.4515 58.2736 51.4002 58.3868 51.4002C58.5413 51.4002 58.6466 51.5007 58.7096 51.6978C58.6633 51.6012 58.5875 51.5638 58.4754 51.5638C58.187 51.5638 57.7019 51.7983 57.1498 52.3167C57.2797 52.1413 57.509 51.9205 57.7226 51.7481ZM58.5876 51.7106C58.5876 51.6811 58.5836 51.6683 58.5757 51.6604C58.6505 51.6978 58.6879 51.7688 58.6879 51.8653C58.6879 52.0871 58.4832 52.2753 58.1949 52.5473C57.8849 52.84 57.7265 52.9957 57.7058 53.1336V53.0331C57.7058 52.7858 57.7688 52.6774 58.0276 52.4221C58.4577 51.9994 58.5876 51.8614 58.5876 51.7106ZM59.0727 52.3886C58.4744 53.0292 58.1398 53.2844 57.9026 53.2844C57.8101 53.2844 57.7649 53.247 57.7649 53.1799C57.7649 53.1297 57.7944 53.0666 57.8318 53.0252C57.8357 53.0794 57.8613 53.109 57.9243 53.109C58.1378 53.109 58.6436 52.7867 59.053 52.3896H59.0737L59.0727 52.3886ZM59.2361 49.9989C59.2951 50.0117 59.3443 50.0915 59.3443 50.1743C59.3443 50.4759 58.7047 50.9656 57.9942 51.2376C58.6505 50.9233 59.2361 50.4039 59.2361 49.9989Z" fill="url(#paint14_linear_556_1489)"/>
<path d="M60.2566 52.7868C60.2566 52.2044 60.9671 51.4012 61.5359 51.4012C61.7573 51.4012 61.9079 51.5274 61.9285 51.7442C61.8862 51.6151 61.7858 51.556 61.6392 51.556C61.0911 51.556 60.3727 52.3719 60.3727 53.0213C60.3727 53.0883 60.3806 53.1347 60.4022 53.181C60.3107 53.0765 60.2566 52.9454 60.2566 52.7868ZM61.3971 52.7365C61.1127 53.0332 60.7821 53.2845 60.6236 53.2845C60.5193 53.2845 60.4573 53.1889 60.4573 53.0125C60.4691 53.0795 60.4987 53.1081 60.5784 53.1081C60.7998 53.1081 61.2013 52.8568 61.4847 52.5345C61.7602 52.2241 61.84 51.9442 61.84 51.7058C61.8734 51.7432 61.9197 51.8437 61.9364 51.9482C62.0909 51.76 62.2169 51.6387 62.2956 51.5796C62.3792 51.5165 62.4757 51.4752 62.5632 51.4752C62.5888 51.4752 62.6134 51.4791 62.6302 51.484C62.4757 51.5678 62.083 52.0329 61.84 52.3374C61.5349 52.7227 61.4434 52.9031 61.4434 53.1081C61.4434 53.1287 61.4434 53.1583 61.4473 53.1918C61.4099 53.1416 61.3765 52.9445 61.3765 52.8439C61.3765 52.8065 61.3804 52.7739 61.3971 52.7365ZM61.5064 53.0795C61.5103 53.1002 61.528 53.109 61.5605 53.109C61.7317 53.109 62.2543 52.7612 62.639 52.3897H62.6597C62.1244 52.9632 61.7396 53.2854 61.6018 53.2854C61.5349 53.2854 61.5054 53.2184 61.5054 53.0805L61.5064 53.0795Z" fill="url(#paint15_linear_556_1489)"/>
<path d="M63.744 51.4308C63.9192 51.2169 64.0954 51.007 64.2371 50.8316H64.4752C64.3158 50.9952 63.7726 51.6732 63.2589 52.3433C62.9538 52.7453 62.8702 52.904 62.8702 53.1592C62.8407 53.0755 62.8279 52.9917 62.8279 52.9079C62.8279 52.6232 62.9745 52.4142 63.1251 52.2132C63.2628 52.0339 63.4547 51.7865 63.6604 51.5352C63.317 51.5648 63.1044 51.5983 63.0375 51.6771C63.1388 51.5185 63.4518 51.4554 63.744 51.4308ZM64.3502 52.3886C63.7726 52.9957 63.4508 53.2844 63.129 53.2844C62.9952 53.2844 62.9489 53.2341 62.9489 53.1297C62.9489 53.0755 62.9617 53.038 62.9745 53.0045C62.9745 53.0627 63.0493 53.109 63.1674 53.109C63.4518 53.109 63.8277 52.837 64.3296 52.3896L64.3502 52.3886ZM66.1521 50.7311C65.9926 50.8947 65.3668 51.6732 64.8521 52.3433C64.547 52.7453 64.4634 52.904 64.4634 53.1592C64.4339 53.0755 64.4211 52.9917 64.4211 52.9079C64.4211 52.6232 64.5677 52.4142 64.7183 52.2132C64.8432 52.0467 65.0401 51.8033 65.2448 51.548C65.1611 51.5559 65.0529 51.5559 64.919 51.5559C64.5805 51.5559 64.2499 51.5313 64.0157 51.5313L64.1072 51.4268C64.3207 51.4268 64.6514 51.4396 64.985 51.4396C65.1099 51.4396 65.2526 51.4357 65.3402 51.4317C65.5449 51.1765 65.7584 50.9203 65.9129 50.7321H66.1511L66.1521 50.7311ZM65.972 52.3886C65.3953 52.9957 65.044 53.2844 64.7222 53.2844C64.5884 53.2844 64.5431 53.2341 64.5431 53.1297C64.5431 53.0755 64.5549 53.038 64.5677 53.0045C64.5677 53.0627 64.6425 53.109 64.7606 53.109C65.045 53.109 65.4504 52.837 65.9523 52.3896H65.973L65.972 52.3886ZM65.6089 51.5313L65.7014 51.4268C66.0861 51.4268 66.3194 51.3972 66.4246 51.3312C66.3745 51.4603 66.0605 51.5323 65.6098 51.5323L65.6089 51.5313Z" fill="url(#paint16_linear_556_1489)"/>
<path d="M66.0732 52.7868C66.0732 52.2044 66.7837 51.4012 67.3525 51.4012C67.5739 51.4012 67.7245 51.5274 67.7452 51.7442C67.7029 51.6151 67.6025 51.556 67.4559 51.556C66.9077 51.556 66.1894 52.3719 66.1894 53.0213C66.1894 53.0883 66.1972 53.1347 66.2189 53.181C66.1274 53.0765 66.0732 52.9454 66.0732 52.7868ZM67.2138 52.7365C66.9294 53.0332 66.5987 53.2845 66.4403 53.2845C66.336 53.2845 66.274 53.1889 66.274 53.0125C66.2858 53.0795 66.3153 53.1081 66.395 53.1081C66.6164 53.1081 67.0179 52.8568 67.3014 52.5345C67.5769 52.2241 67.6566 51.9442 67.6566 51.7058C67.6901 51.7432 67.7363 51.8437 67.753 51.9482C67.9075 51.76 68.0335 51.6387 68.1122 51.5796C68.1959 51.5165 68.2923 51.4752 68.3799 51.4752C68.4055 51.4752 68.4301 51.4791 68.4468 51.484C68.2923 51.5678 67.8997 52.0329 67.6566 52.3374C67.3515 52.7227 67.26 52.9031 67.26 53.1081C67.26 53.1287 67.26 53.1583 67.264 53.1918C67.2266 53.1416 67.1931 52.9445 67.1931 52.8439C67.1931 52.8065 67.197 52.7739 67.2138 52.7365ZM67.323 53.0795C67.3269 53.1002 67.3447 53.109 67.3771 53.109C67.5484 53.109 68.0709 52.7612 68.4557 52.3897H68.4763C67.941 52.9632 67.5562 53.2854 67.4185 53.2854C67.3515 53.2854 67.322 53.2184 67.322 53.0805L67.323 53.0795Z" fill="url(#paint17_linear_556_1489)"/>
<path d="M70.2585 51.7234C70.2585 51.7609 70.2546 51.8072 70.2418 51.8407C70.2418 51.6988 70.1827 51.548 69.9702 51.548C69.3768 51.548 68.6742 52.3768 68.6742 53.0085C68.6742 53.0834 68.682 53.1346 68.7037 53.1799C68.6112 53.0755 68.5659 52.8951 68.5659 52.7404C68.5659 52.1886 69.2804 51.3923 69.9082 51.3923C70.1296 51.3923 70.2595 51.5342 70.2595 51.7224L70.2585 51.7234ZM71.463 51.1331C72.207 50.1408 72.5415 49.7565 72.8427 49.7565C73.0021 49.7565 73.1025 49.8609 73.1192 50.0117C73.0857 49.9407 73.0228 49.8856 72.9263 49.8856C72.6587 49.8856 72.3201 50.2876 71.6342 51.2041C71.1747 51.82 70.539 52.6862 70.1247 53.2844L70.0076 53.1179C70.5006 52.4359 70.7594 52.0752 71.0231 51.7195C70.476 52.293 69.4014 53.2844 68.9586 53.2844C68.7834 53.2844 68.7578 53.1632 68.7578 53.0045C68.7785 53.0794 68.8533 53.109 68.9714 53.109C69.6277 53.109 70.9021 51.8781 71.2623 51.4012L71.463 51.1331ZM70.1375 51.7274C70.1631 51.7648 70.1788 51.8151 70.1788 51.8693C70.1788 52.0664 69.9781 52.2378 69.7734 52.2378C69.6937 52.2378 69.6267 52.2211 69.5893 52.1748C69.798 52.162 70.0991 51.9737 70.1375 51.7264V51.7274ZM71.4669 51.7481C71.835 51.4514 72.018 51.4002 72.1312 51.4002C72.2857 51.4002 72.391 51.5007 72.453 51.6978C72.4067 51.6012 72.3319 51.5638 72.2188 51.5638C71.9304 51.5638 71.4453 51.7983 70.8932 52.3167C71.0221 52.1413 71.2524 51.9195 71.466 51.7471L71.4669 51.7481ZM72.3319 51.7106C72.3319 51.6811 72.328 51.6682 72.3192 51.6604C72.3949 51.6978 72.4323 51.7688 72.4323 51.8653C72.4323 52.0871 72.2276 52.2753 71.9393 52.5473C71.6303 52.8399 71.4709 52.9957 71.4502 53.1336V53.0331C71.4502 52.7857 71.5132 52.6774 71.772 52.4221C72.203 51.9994 72.3319 51.8614 72.3319 51.7106ZM72.8171 52.3886C72.2188 53.0292 71.8842 53.2844 71.647 53.2844C71.5545 53.2844 71.5093 53.2469 71.5093 53.1799C71.5093 53.1297 71.5388 53.0666 71.5762 53.0252C71.5801 53.0794 71.6057 53.109 71.6687 53.109C71.8822 53.109 72.3871 52.7867 72.7974 52.3896H72.8181L72.8171 52.3886ZM72.9804 49.9989C73.0395 50.0117 73.0887 50.0915 73.0887 50.1743C73.0887 50.4758 72.4156 51.0415 71.7051 51.3125C72.3615 50.9981 72.9804 50.4039 72.9804 49.9979V49.9989Z" fill="url(#paint18_linear_556_1489)"/>
<path d="M74.4004 51.7402C74.3837 51.6102 74.305 51.556 74.183 51.556C73.7145 51.556 72.9666 52.3473 72.9666 53.0134C72.9666 53.0844 72.9745 53.1346 72.9962 53.181C72.9047 53.0765 72.8584 52.8922 72.8584 52.7543C72.8584 52.1896 73.6151 51.4022 74.0865 51.4022C74.2833 51.4022 74.4004 51.5392 74.4004 51.7402ZM74.5845 52.3887C74.1495 52.8735 73.5354 53.2844 73.2382 53.2844C73.0788 53.2844 73.0503 53.1632 73.0503 53.0046C73.071 53.0795 73.1044 53.109 73.2215 53.109C73.5807 53.109 74.0993 52.837 74.5638 52.3896L74.5845 52.3887ZM74.2509 51.6653C74.3138 51.6949 74.3463 51.757 74.3463 51.8329C74.3463 52.1384 73.8238 52.3266 73.2432 52.3512C73.624 52.2763 74.2174 52.1581 74.2509 51.6653Z" fill="url(#paint19_linear_556_1489)"/>
<path d="M76.1216 51.5352C75.5656 51.5352 74.8217 52.364 74.8217 53.0134C74.8217 53.0804 74.8296 53.1267 74.8512 53.173C74.7587 53.0686 74.7046 52.9346 74.7046 52.7838C74.7046 52.1935 75.4446 51.3933 76.0134 51.3933C76.2014 51.3933 76.3057 51.4978 76.3352 51.6407C76.2939 51.5697 76.2427 51.5362 76.1216 51.5362V51.5352ZM75.8412 52.9661C75.8412 52.8616 75.8619 52.7365 75.9416 52.569C75.67 52.8784 75.235 53.2765 75.0766 53.2765C74.9634 53.2765 74.9053 53.176 74.9053 53.0045C74.9181 53.0715 74.9516 53.1001 75.0185 53.1001C75.2527 53.1001 75.7585 52.7404 76.0301 52.4054C76.3106 51.8782 77.0919 50.8149 77.5771 50.2955C77.9619 49.8806 78.1498 49.7555 78.3004 49.7555C78.3998 49.7555 78.4549 49.8264 78.4549 49.923C78.4421 49.8935 78.4086 49.8728 78.3712 49.8728C78.2541 49.8728 78.0534 50.0275 77.7021 50.4217C77.2671 50.9154 76.6826 51.6525 76.222 52.4014C76.0626 52.6646 75.9298 52.9287 75.9298 53.1967C75.8796 53.1336 75.8422 53.0548 75.8422 52.9671L75.8412 52.9661ZM76.0134 53.0666C76.0213 53.0873 76.038 53.1001 76.0675 53.1001C76.2427 53.1001 76.7111 52.7523 77.0959 52.3807H77.1165C76.5812 52.9543 76.2555 53.2765 76.1167 53.2765C76.0498 53.2765 76.0163 53.2056 76.0124 53.0676L76.0134 53.0666ZM78.3702 49.9486C78.4165 49.9615 78.4411 49.995 78.4411 50.0531C78.4411 50.3586 77.1372 51.5934 76.4011 52.1501C77.1116 51.48 78.2482 50.3802 78.3702 49.9486Z" fill="url(#paint20_linear_556_1489)"/>
<path d="M79.2528 51.4308C79.428 51.217 79.6041 51.0071 79.7459 50.8317H79.984C79.8256 50.9953 79.2824 51.6732 78.7677 52.3433C78.4626 52.7454 78.378 52.9041 78.378 53.1593C78.3485 53.0755 78.3367 52.9918 78.3367 52.908C78.3367 52.6232 78.4833 52.4143 78.6339 52.2133C78.7716 52.0339 78.9635 51.7866 79.1692 51.5353C78.8258 51.5648 78.6132 51.5983 78.5463 51.6772C78.6457 51.5185 78.9596 51.4555 79.2528 51.4308ZM79.8876 52.3887C79.3109 52.9957 78.9596 53.2845 78.6378 53.2845C78.504 53.2845 78.4577 53.2342 78.4577 53.1297C78.4577 53.0755 78.4705 53.0381 78.4833 53.0046C78.4833 53.0627 78.5581 53.109 78.6762 53.109C78.9606 53.109 79.366 52.8371 79.8679 52.3897H79.8885L79.8876 52.3887ZM79.5244 51.5313L79.6169 51.4269C80.0017 51.4269 80.2349 51.3973 80.3402 51.3313C80.29 51.4604 79.9761 51.5323 79.5254 51.5323L79.5244 51.5313Z" fill="url(#paint21_linear_556_1489)"/>
<path d="M81.3864 51.4012C81.6747 51.4012 81.7958 51.5895 81.8125 51.7737C81.7712 51.6476 81.6452 51.5599 81.4612 51.5599C80.8806 51.5599 80.1032 52.368 80.1032 52.9957C80.1032 53.0755 80.116 53.1297 80.1366 53.18C80.0412 53.0716 79.99 52.9376 79.99 52.7868C79.99 52.1965 80.7635 51.4012 81.3864 51.4012ZM80.1868 53.0085C80.2075 53.0716 80.2616 53.1218 80.3669 53.1218C80.8599 53.1218 81.6668 52.3729 81.6668 51.8161C81.6668 51.7787 81.6629 51.7452 81.6541 51.7117C81.7288 51.7491 81.7918 51.8664 81.7918 51.9965C81.7918 52.5454 80.9514 53.2854 80.4417 53.2854C80.2911 53.2854 80.1996 53.2174 80.1868 53.0085Z" fill="url(#paint22_linear_556_1489)"/>
<path d="M82.1196 54.7498C82.1196 54.8168 82.1285 54.8966 82.1452 54.938C82.0861 54.871 82.0281 54.7035 82.0281 54.5862C82.0281 53.8284 82.898 53.5436 83.5878 53.5436C83.7089 53.5436 83.822 53.5515 83.9263 53.5692C82.9649 53.5899 82.1196 54.0048 82.1196 54.7498ZM84.7077 52.5188C84.4735 52.774 83.9716 53.247 83.6292 53.247C83.5121 53.247 83.4451 53.1928 83.4451 53.0962C83.4451 53.046 83.4619 53.0046 83.4786 52.9711C83.4874 53.0381 83.5337 53.0716 83.6419 53.0716C83.9893 53.0716 84.4479 52.7405 84.7372 52.3719L85.1761 51.8151C85.3641 51.5806 85.5481 51.4052 85.7114 51.4052C85.7488 51.4052 85.7823 51.4131 85.8197 51.4348C85.678 51.5106 85.4477 51.7491 85.2637 51.9915C85.1387 52.1551 85.0128 52.3561 84.8622 52.5907C84.5483 53.0805 84.381 53.3613 84.1104 53.7328C83.4786 54.5912 82.8222 55.0267 82.4424 55.0267C82.2711 55.0267 82.217 54.943 82.2042 54.7882C82.2249 54.8592 82.2997 54.872 82.3666 54.872C82.776 54.872 83.3694 54.3872 83.9716 53.5959C84.2265 53.2608 84.4902 52.8578 84.7077 52.5188ZM84.3524 51.7324C84.3229 51.623 84.2442 51.5648 84.1438 51.5648C83.9263 51.5648 83.5248 51.8161 83.019 52.297H82.9984C83.579 51.6811 83.9175 51.4012 84.1232 51.4012C84.2649 51.4012 84.3524 51.5313 84.3524 51.7324ZM84.1802 51.7146C84.1802 51.689 84.1724 51.6604 84.1635 51.6476C84.2511 51.6772 84.2973 51.7432 84.2973 51.8358C84.2973 51.9955 84.1635 52.1246 83.883 52.3808C83.4068 52.8114 83.3989 52.8282 83.3733 53.0923C83.3605 52.9711 83.3605 52.9494 83.3605 52.9169C83.3605 52.6567 83.4314 52.5266 83.7659 52.2172C84.009 51.9955 84.1802 51.8319 84.1802 51.7146Z" fill="url(#paint23_linear_556_1489)"/>
<path d="M85.5568 52.9957C85.5568 53.0755 85.5696 53.1297 85.5902 53.18C85.4948 53.0716 85.4436 52.9376 85.4436 52.7868C85.4436 52.4271 85.8333 51.9797 86.2673 51.9492C85.8746 52.1295 85.5568 52.6025 85.5568 52.9957ZM85.8953 53.2845C85.7447 53.2845 85.6532 53.2174 85.6404 53.0085C85.6611 53.0716 85.7152 53.1218 85.8205 53.1218C86.2131 53.1218 86.7987 52.6449 87.0152 52.1591H86.9236C86.6855 52.1591 86.4464 52.0881 86.4464 51.9295C86.4464 51.8792 86.4798 51.825 86.5339 51.7915C86.53 51.8043 86.5261 51.8289 86.5261 51.8467C86.5261 52.0221 86.7229 52.1226 87.0191 52.1561C87.0693 52.0349 87.1027 51.9137 87.1027 51.8004C87.1027 51.7669 87.0988 51.7245 87.0811 51.6703C87.1815 51.6998 87.2444 51.8082 87.2444 51.9551C87.2444 52.504 86.404 53.2854 85.8943 53.2854L85.8953 53.2845ZM86.3804 51.9078C86.3726 51.8782 86.3686 51.8536 86.3686 51.824C86.3686 51.5855 86.6107 51.4012 86.8912 51.4012C87.1086 51.4012 87.213 51.5185 87.2464 51.69C87.1923 51.5855 87.0831 51.5313 86.8784 51.5313C86.7071 51.5313 86.3804 51.6772 86.3804 51.9078ZM88.3909 51.5648C88.4037 51.5146 88.4076 51.4643 88.4115 51.4141C88.4824 51.4476 88.5198 51.5018 88.5198 51.6023C88.5198 51.8161 88.3614 52.0792 88.0307 52.3847C87.6676 52.7198 87.5544 52.8499 87.5288 53.1386C87.516 53.0627 87.5082 52.9918 87.5082 52.9376C87.5082 52.6567 87.6341 52.4685 87.9097 52.2172C88.1026 52.0418 88.2236 51.8989 88.2984 51.7777C88.077 51.9787 87.6961 52.1541 87.2494 52.163C87.827 52.1088 88.3112 51.7659 88.3909 51.5648ZM89.4192 51.9245C89.0758 52.3601 88.7048 52.8371 88.7048 53.1425V53.1889C88.6753 53.1179 88.6507 52.975 88.6507 52.8587C88.6507 52.8045 88.6546 52.7543 88.6713 52.6951C88.3456 53.0391 87.9776 53.2854 87.7306 53.2854C87.6391 53.2854 87.5928 53.2529 87.5928 53.1682C87.5928 53.114 87.6174 53.0509 87.6391 53.0174C87.6469 53.0844 87.6686 53.11 87.7512 53.11C88.0061 53.11 88.4578 52.8715 88.8298 52.4281C88.9508 52.2487 89.1181 52.0221 89.2854 51.8171C89.4734 51.5826 89.6574 51.4072 89.8207 51.4072C89.8581 51.4072 89.8916 51.415 89.929 51.4367C89.7873 51.5126 89.6033 51.6969 89.4192 51.9265V51.9245ZM88.7668 53.0795C88.7707 53.1002 88.7875 53.109 88.8209 53.109C88.9922 53.109 89.5147 52.7612 89.8995 52.3897H89.9201C89.3848 52.9632 89 53.2854 88.8623 53.2854C88.7953 53.2854 88.7658 53.2184 88.7658 53.0805L88.7668 53.0795Z" fill="url(#paint24_linear_556_1489)"/>
<path d="M89.9626 52.3098C90.31 51.9837 90.6023 51.6693 90.7027 51.4012C90.6397 51.3549 90.5984 51.2928 90.5984 51.2002C90.5984 51.0829 90.6781 50.9952 90.7696 50.9952C90.8158 50.9952 90.8572 51.0159 90.9034 51.0455C90.8532 51.0455 90.7952 51.1086 90.7952 51.213C90.7952 51.347 90.8493 51.4604 90.9959 51.5146C90.9083 51.4978 90.8247 51.4732 90.7578 51.4348C90.6574 51.6447 90.3523 52.0043 89.9804 52.3226L89.9626 52.3098ZM90.4183 53.1554C90.3887 53.0755 90.376 53.0213 90.376 52.9287C90.376 52.7198 90.4389 52.569 90.744 52.2635C91.0156 51.9915 91.116 51.8821 91.116 51.7117C91.116 51.6102 91.0825 51.5609 91.0235 51.5274C91.2114 51.5983 91.2872 51.6742 91.2872 51.8201C91.2872 52.0004 91.1701 52.1344 90.8768 52.4182C90.6889 52.6065 90.4183 52.8331 90.4183 53.1554ZM90.494 53.1721C90.494 53.1297 90.5068 53.0716 90.5314 53.0253C90.5354 53.0716 90.5816 53.109 90.6485 53.109C90.8493 53.109 91.3049 52.7454 91.668 52.3897H91.6897C91.3 52.8045 90.8995 53.2854 90.6151 53.2854C90.5314 53.2854 90.494 53.243 90.494 53.1721Z" fill="url(#paint25_linear_556_1489)"/>
<path d="M94.9842 49.8688C94.9842 49.9575 94.9094 50.1792 94.503 50.6848C94.2767 50.9656 93.5248 51.8693 93.5248 51.8693C93.1657 52.3048 92.9895 52.5896 92.9895 52.9119C92.9895 52.9996 93.0023 53.108 93.0436 53.1799C92.9265 53.0755 92.8596 52.9168 92.8596 52.7404C92.8596 52.4349 93.0564 52.1462 93.4245 51.6939L94.3229 50.5892C94.5699 50.2876 94.812 49.9703 94.9547 49.7565C94.9754 49.7939 94.9842 49.8402 94.9842 49.8688ZM94.4115 52.225C94.4823 52.0831 94.5247 51.9363 94.5247 51.7983C94.5247 51.7648 94.5207 51.7224 94.504 51.6682C94.6044 51.6978 94.6634 51.8062 94.6634 51.953C94.6634 52.4684 93.9067 53.2834 93.3507 53.2834C93.1539 53.2834 93.1076 53.1661 93.0791 53.0075C93.1047 53.0784 93.1666 53.1287 93.2631 53.1287C93.6646 53.1287 94.1783 52.6931 94.4085 52.2369C94.0651 52.2329 93.8771 52.0821 93.8771 51.8979C93.8771 51.8476 93.9106 51.7934 93.9657 51.7599C93.9657 51.9649 94.1035 52.1698 94.4125 52.224L94.4115 52.225ZM93.826 51.8151C93.8929 51.547 94.1015 51.4002 94.3072 51.4002C94.5247 51.4002 94.6457 51.5175 94.6624 51.6889C94.6083 51.5845 94.4577 51.5303 94.2944 51.5303C94.1232 51.5303 93.885 51.614 93.826 51.8151ZM95.983 51.2544C95.4231 52.0122 95.1259 52.632 95.122 53.0045C95.122 53.0676 95.1259 53.1336 95.1387 53.172C95.0639 53.0922 95.0098 52.9168 95.0098 52.7828C95.0098 52.6064 95.0807 52.3719 95.2234 52.0881C95.0561 52.1718 94.8179 52.2093 94.6546 52.2171C94.8927 52.1797 95.1053 52.1127 95.2607 52.021C95.3946 51.7658 95.5825 51.4682 95.8256 51.1292C96.3353 50.4167 96.9583 49.7565 97.2722 49.7565C97.3981 49.7565 97.5271 49.8609 97.5349 50.0117C97.5143 49.9486 97.4346 49.8856 97.3637 49.8856C97.0714 49.8856 96.4298 50.6434 95.983 51.2544ZM95.2017 52.9996C95.2184 53.0705 95.2647 53.108 95.3523 53.108C95.6121 53.108 96.1464 52.7858 96.5686 52.3886H96.5892C96.0037 53.0045 95.6111 53.2844 95.369 53.2844C95.2391 53.2844 95.2017 53.2056 95.2017 52.9996ZM97.5044 50.1743C97.5044 50.6049 96.601 51.4682 95.6189 51.8653C96.5764 51.3628 97.3873 50.4749 97.3912 49.994C97.466 50.0147 97.5044 50.0777 97.5044 50.1743Z" fill="url(#paint26_linear_556_1489)"/>
<path d="M96.7269 52.9957C96.7269 53.0755 96.7387 53.1297 96.7604 53.18C96.664 53.0716 96.6138 52.9326 96.6138 52.7986C96.6138 52.4222 97.0025 51.9787 97.4374 51.9491C97.0448 52.1295 96.7269 52.6025 96.7269 52.9957ZM97.0655 53.2844C96.9149 53.2844 96.8234 53.2174 96.8106 53.0085C96.8362 53.0755 96.8814 53.1218 96.9985 53.1218C97.3538 53.1218 97.8852 52.707 98.1351 52.2635C97.8389 52.2132 97.6421 52.1295 97.6421 51.9491C97.6421 51.8989 97.6588 51.8486 97.6923 51.8151C97.6923 51.9866 97.8724 52.1413 98.1519 52.2339C98.2267 52.0911 98.2729 51.9442 98.2729 51.8072C98.2729 51.7658 98.269 51.7235 98.2522 51.6693C98.3526 51.6988 98.4146 51.8072 98.4146 51.9541C98.4146 52.503 97.5762 53.2844 97.0655 53.2844ZM97.5929 51.9078C97.585 51.8782 97.5801 51.8536 97.5801 51.8201C97.5801 51.5895 97.7769 51.4012 98.0564 51.4012C98.2778 51.4012 98.3821 51.5185 98.4156 51.69C98.3654 51.5816 98.2198 51.5313 98.081 51.5313C97.8301 51.5313 97.5929 51.6988 97.5929 51.9078ZM98.6882 52.3591C98.5622 52.3463 98.4372 52.3295 98.3703 52.301C98.45 52.3177 98.5878 52.3256 98.701 52.3305C98.9431 51.8329 99.504 51.3214 99.9714 51.3214C100.239 51.3214 100.327 51.4889 100.343 51.6565C100.306 51.5392 100.235 51.4682 100.063 51.4682C99.6575 51.4682 99.1773 51.8782 98.9047 52.3354C99.6575 52.3266 100.197 51.9797 100.197 51.6318C100.197 51.6151 100.197 51.6023 100.193 51.5855C100.256 51.6358 100.284 51.69 100.284 51.753C100.284 52.0457 99.6703 52.3719 98.9558 52.3719H98.885C98.764 52.5858 98.6921 52.8035 98.6921 52.9957C98.6921 53.0755 98.7049 53.1297 98.7256 53.18C98.6301 53.0716 98.5799 52.9376 98.5799 52.7828C98.5799 52.6528 98.6213 52.5109 98.6882 52.3591ZM98.7758 53.0085C98.8053 53.0883 98.8594 53.1218 98.9686 53.1218C99.5286 53.1218 100.276 52.4478 100.289 51.9334C100.319 51.9915 100.336 52.0585 100.336 52.1295C100.336 52.6321 99.5325 53.2844 99.0356 53.2844C98.8978 53.2844 98.7886 53.2342 98.7758 53.0085Z" fill="url(#paint27_linear_556_1489)"/>
<path d="M102.036 51.5559C101.48 51.5559 100.694 52.3719 100.694 53.0213C100.694 53.0883 100.703 53.1346 100.723 53.1809C100.631 53.0765 100.577 52.9425 100.577 52.7917C100.577 52.2014 101.358 51.4012 101.927 51.4012C102.148 51.4012 102.308 51.5185 102.328 51.7363C102.287 51.6072 102.178 51.5559 102.036 51.5559ZM103.951 49.9152C103.951 49.995 103.905 50.2078 103.475 50.7311L102.195 52.2921C101.919 52.6311 101.773 52.8705 101.773 53.1169C101.773 53.1543 101.773 53.1711 101.777 53.1918C101.74 53.1415 101.706 52.9484 101.706 52.8272C101.706 52.7976 101.71 52.769 101.723 52.7355C101.448 53.0321 101.108 53.2834 100.95 53.2834C100.836 53.2834 100.778 53.1839 100.778 53.0114C100.791 53.0785 100.825 53.107 100.892 53.107C101.126 53.107 101.531 52.8557 101.816 52.5335C102.091 52.2231 102.234 51.9432 102.234 51.7047C102.271 51.755 102.293 51.8053 102.301 51.8673L103.304 50.6247C103.554 50.3143 103.809 49.9427 103.897 49.7535C103.93 49.7949 103.951 49.8491 103.951 49.9122V49.9152ZM101.836 53.0794C101.84 53.1001 101.857 53.109 101.886 53.109C102.062 53.109 102.584 52.7611 102.969 52.3896H102.99C102.454 52.9632 102.07 53.2854 101.932 53.2854C101.865 53.2854 101.836 53.2174 101.836 53.0794Z" fill="url(#paint28_linear_556_1489)"/>
<path d="M60.2671 12.4226C59.9867 12.4098 59.5153 12.4038 58.853 12.4038C58.0618 12.4038 57.4645 12.4098 57.061 12.4226V12.2994C57.2096 12.2915 57.3179 12.2747 57.3858 12.2491C57.4537 12.2245 57.4999 12.1772 57.5255 12.1072C57.5501 12.0373 57.5619 11.9239 57.5619 11.7672V8.69854C57.5619 8.54185 57.5501 8.42852 57.5255 8.35856C57.4999 8.28859 57.4547 8.24129 57.3858 8.21665C57.3169 8.19202 57.2096 8.17526 57.061 8.16639V8.04321C57.4655 8.05602 58.0618 8.06194 58.853 8.06194C59.4582 8.06194 59.8883 8.05602 60.1441 8.04321C60.1146 8.3152 60.1008 8.5586 60.1008 8.77343C60.1008 8.93406 60.1067 9.06217 60.1195 9.15677H59.9778C59.9483 8.88873 59.9119 8.68967 59.8666 8.55959C59.8213 8.42951 59.7446 8.33491 59.6383 8.27479C59.531 8.21468 59.3687 8.18512 59.1502 8.18512H58.6375C58.4899 8.18512 58.3807 8.19694 58.3128 8.21961C58.2449 8.24227 58.1986 8.28859 58.174 8.35954C58.1494 8.42951 58.1366 8.54284 58.1366 8.69952V10.159H58.544C58.6887 10.159 58.7999 10.1245 58.8776 10.0565C58.9554 9.9885 59.0085 9.90867 59.0351 9.81506C59.0616 9.72144 59.0833 9.60614 59.1 9.46522L59.1187 9.34204H59.2604C59.2486 9.51449 59.2427 9.70863 59.2427 9.92346V10.2201C59.2427 10.43 59.2545 10.7236 59.2791 11.0981H59.1374C59.1335 11.0695 59.1207 10.97 59.1 10.7985C59.0794 10.6271 59.0223 10.498 58.9298 10.4113C58.8373 10.3255 58.7084 10.2822 58.544 10.2822H58.1366V11.7663C58.1366 11.9229 58.1494 12.0373 58.174 12.1062C58.1986 12.1762 58.2449 12.2235 58.3128 12.2462C58.3807 12.2688 58.4889 12.2807 58.6375 12.2807H59.0882C59.3441 12.2807 59.5379 12.2462 59.6718 12.1782C59.8056 12.1102 59.903 12.0008 59.965 11.85C60.027 11.6992 60.0723 11.4775 60.1008 11.1848H60.2425C60.2307 11.2962 60.2238 11.445 60.2238 11.6303C60.2238 11.8658 60.2386 12.1299 60.2671 12.4226Z" fill="url(#paint29_linear_556_1489)"/>
<path d="M62.5749 8.03239C62.6802 8.07181 62.7884 8.12798 62.8996 8.20288C62.9901 8.26003 63.06 8.2896 63.1092 8.2896C63.1466 8.2896 63.1751 8.26792 63.1958 8.22456C63.2165 8.1812 63.2322 8.11221 63.245 8.01663H63.3867C63.366 8.25609 63.3562 8.67688 63.3562 9.27899H63.2145C63.1899 8.94492 63.0935 8.66308 62.9272 8.43446C62.7599 8.20583 62.5178 8.09053 62.2009 8.09053C61.9785 8.09053 61.7974 8.15755 61.6577 8.29157C61.517 8.42559 61.4481 8.59804 61.4481 8.80893C61.4481 8.96562 61.4835 9.10161 61.5563 9.21691C61.6282 9.33319 61.7197 9.43174 61.8309 9.51353C61.9421 9.59631 62.1005 9.70175 62.3072 9.82887L62.4863 9.94023C62.7461 10.1009 62.9508 10.2418 63.1013 10.364C63.2519 10.4862 63.372 10.6251 63.4625 10.7818C63.553 10.9385 63.5983 11.1218 63.5983 11.3327C63.5983 11.7071 63.4753 11.9979 63.2273 12.2018C62.9803 12.4058 62.6674 12.5083 62.2885 12.5083C62.0907 12.5083 61.9293 12.4876 61.8043 12.4462C61.6784 12.4048 61.5583 12.3497 61.4422 12.2797C61.3517 12.2225 61.2818 12.193 61.2326 12.193C61.1962 12.193 61.1667 12.2147 61.146 12.258C61.1253 12.3014 61.1096 12.3704 61.0968 12.4659H60.9551C60.9718 12.2393 60.9797 11.7436 60.9797 10.9809H61.1214C61.1509 11.3977 61.2533 11.7357 61.4304 11.9959C61.6075 12.256 61.8791 12.3861 62.2452 12.3861C62.4676 12.3861 62.6575 12.3171 62.814 12.1792C62.9704 12.0412 63.0482 11.8353 63.0482 11.5633C63.0482 11.3317 62.9714 11.1366 62.8169 10.975C62.6624 10.8133 62.4184 10.632 62.0848 10.43C61.8417 10.2822 61.6449 10.1491 61.4953 10.0338C61.3458 9.91855 61.2227 9.7796 61.1283 9.61602C61.0338 9.45342 60.9856 9.26224 60.9856 9.04445C60.9856 8.69757 61.0968 8.43249 61.3192 8.24919C61.5416 8.06491 61.8171 7.97327 62.1468 7.97327C62.3279 7.97327 62.4706 7.99298 62.5749 8.03239Z" fill="url(#paint30_linear_556_1489)"/>
<path d="M67.5147 8.83454C67.5147 9.0405 67.5206 9.20901 67.5334 9.34205H67.3907C67.3583 9.02375 67.3169 8.78822 67.2677 8.63351C67.2185 8.47879 67.1319 8.36547 67.0079 8.29353C66.8839 8.22159 66.695 8.18513 66.4391 8.18513H66.1055V11.7062C66.1055 11.8786 66.1223 12.0057 66.1547 12.0836C66.1872 12.1624 66.2453 12.2156 66.3279 12.2442C66.4106 12.2738 66.5434 12.2915 66.7294 12.3004V12.4236C66.5149 12.4107 66.2128 12.4048 65.8211 12.4048C65.4088 12.4048 65.1047 12.4107 64.9069 12.4236V12.3004C65.092 12.2925 65.2258 12.2738 65.3084 12.2442C65.3911 12.2156 65.4492 12.1614 65.4816 12.0836C65.5141 12.0057 65.5308 11.8796 65.5308 11.7062V8.18513H65.1973C64.9414 8.18513 64.7524 8.22159 64.6285 8.29353C64.5045 8.36645 64.4188 8.47978 64.3687 8.63351C64.3195 8.78822 64.2781 9.02473 64.2457 9.34205H64.1039C64.1158 9.21 64.1226 9.0405 64.1226 8.83454C64.1226 8.59902 64.1079 8.3359 64.0793 8.04224C64.4208 8.05505 65.0024 8.06096 65.8211 8.06096C66.6399 8.06096 67.2156 8.05505 67.557 8.04224C67.5275 8.33492 67.5147 8.59902 67.5147 8.83454Z" fill="url(#paint31_linear_556_1489)"/>
<path d="M71.3203 8.58915C71.6824 8.95377 71.8645 9.48592 71.8645 10.1826C71.8645 10.632 71.7759 11.0262 71.5988 11.3642C71.4216 11.7022 71.1648 11.9633 70.8292 12.1466C70.4937 12.3309 70.0931 12.4226 69.6277 12.4226L69.2695 12.4167C69.0382 12.4088 68.8699 12.4038 68.7627 12.4038C68.4252 12.4038 68.1693 12.4098 67.9961 12.4226V12.2994C68.1447 12.2915 68.2529 12.2747 68.3208 12.2491C68.3887 12.2245 68.435 12.1772 68.4606 12.1072C68.4852 12.0373 68.497 11.9239 68.497 11.7672V8.69854C68.497 8.54185 68.4852 8.42852 68.4606 8.35856C68.435 8.28859 68.3897 8.24129 68.3208 8.21665C68.252 8.19202 68.1447 8.17526 67.9961 8.16639V8.04321C68.1408 8.05602 68.3405 8.06194 68.5954 8.06194L69.1209 8.05602C69.4013 8.04814 69.5883 8.04321 69.6838 8.04321C70.413 8.04321 70.9581 8.22552 71.3203 8.58915ZM69.2409 8.19694C69.177 8.22552 69.1327 8.27676 69.1081 8.35166C69.0835 8.42557 69.0707 8.53692 69.0707 8.68573V11.7791C69.0707 11.9269 69.0835 12.0392 69.1081 12.1131C69.1327 12.187 69.177 12.2393 69.2409 12.2678C69.3049 12.2974 69.4023 12.3112 69.5342 12.3112C69.9711 12.3112 70.3146 12.2324 70.5665 12.0727C70.8174 11.9141 70.9936 11.6825 71.0939 11.377C71.1953 11.0725 71.2455 10.6823 71.2455 10.2073C71.2455 9.73228 71.1904 9.34598 71.0792 9.04739C70.968 8.7488 70.7879 8.5251 70.5389 8.3763C70.29 8.22749 69.9524 8.15358 69.5283 8.15358C69.4004 8.15358 69.3049 8.16738 69.2409 8.19694Z" fill="url(#paint32_linear_556_1489)"/>
<path d="M76.0771 8.2492C76.2995 8.4325 76.4107 8.69266 76.4107 9.02574C76.4107 9.25436 76.3507 9.47511 76.2316 9.68993C76.1116 9.90476 75.9679 10.1009 75.7977 10.2792C75.6284 10.4566 75.404 10.6714 75.1265 10.9227C74.8982 11.1336 74.728 11.2943 74.6178 11.4027C74.5066 11.5111 74.4072 11.6263 74.3176 11.7485H76.0102C76.1608 11.7485 76.273 11.7357 76.3487 11.7111C76.4235 11.6855 76.4757 11.6441 76.5023 11.585C76.5308 11.5268 76.5525 11.4391 76.5692 11.3218H76.7109C76.7109 11.8343 76.7217 12.2048 76.7443 12.4324C76.6223 12.4049 76.208 12.3911 75.5015 12.3911H73.5501V12.2492C73.6445 12.1486 73.8049 11.991 74.0332 11.7732C74.3511 11.4785 74.6138 11.2125 74.8254 10.9759C75.036 10.7394 75.2181 10.4704 75.3716 10.1698C75.5251 9.86929 75.6009 9.55 75.6009 9.20903C75.6009 8.60791 75.3224 8.30734 74.7674 8.30734C74.3117 8.30734 73.9397 8.56849 73.6494 9.09176L73.5166 9.01687C73.6613 8.71631 73.8669 8.46699 74.1336 8.26891C74.4003 8.07182 74.7418 7.97229 75.159 7.97229C75.5487 7.97229 75.8538 8.06394 76.0762 8.24822L76.0771 8.2492Z" fill="url(#paint33_linear_556_1489)"/>
<path d="M80.7071 8.24623C81.0132 8.42657 81.2513 8.68377 81.4245 9.01882C81.5977 9.35388 81.6833 9.73722 81.6833 10.1708C81.6833 10.6044 81.5938 11.0154 81.4167 11.3691C81.2385 11.7229 80.9896 12.0008 80.6698 12.2038C80.3499 12.4078 79.9848 12.5093 79.5735 12.5093C79.1897 12.5093 78.8453 12.4186 78.5392 12.2383C78.2332 12.057 77.9931 11.7998 77.8179 11.4657C77.6428 11.1316 77.5552 10.7444 77.5552 10.3048C77.5552 9.86533 77.6428 9.46819 77.8179 9.11441C77.9931 8.76063 78.2401 8.48274 78.5599 8.27973C78.8797 8.07673 79.2478 7.97424 79.665 7.97424C80.0547 7.97424 80.4011 8.06491 80.7071 8.24623ZM78.9516 8.37926C78.7646 8.54876 78.6209 8.79611 78.5176 9.1223C78.4143 9.4475 78.3631 9.83379 78.3631 10.2792C78.3631 10.9858 78.4831 11.5091 78.7223 11.849C78.9614 12.189 79.2694 12.3585 79.6483 12.3585C79.8874 12.3585 80.1 12.2728 80.286 12.1003C80.472 11.9279 80.6166 11.6776 80.7199 11.3524C80.8233 11.0262 80.8735 10.6409 80.8735 10.1955C80.8735 9.49381 80.7544 8.97349 80.5153 8.6345C80.2761 8.29452 79.9681 8.12502 79.5892 8.12502C79.3501 8.12502 79.1376 8.20878 78.9516 8.37926Z" fill="url(#paint34_linear_556_1489)"/>
<path d="M85.0764 8.2492C85.2988 8.4325 85.41 8.69266 85.41 9.02574C85.41 9.25436 85.35 9.47511 85.2309 9.68993C85.1109 9.90476 84.9672 10.1009 84.7969 10.2792C84.6277 10.4566 84.4033 10.6714 84.1258 10.9227C83.8975 11.1336 83.7273 11.2943 83.617 11.4027C83.5058 11.5111 83.4064 11.6263 83.3169 11.7485H85.0095C85.1601 11.7485 85.2722 11.7357 85.348 11.7111C85.4228 11.6855 85.475 11.6441 85.5015 11.585C85.5301 11.5268 85.5517 11.4391 85.5684 11.3218H85.7101C85.7101 11.8343 85.721 12.2048 85.7436 12.4324C85.6216 12.4049 85.2073 12.3911 84.5007 12.3911H82.5493V12.2492C82.6438 12.1486 82.8042 11.991 83.0325 11.7732C83.3504 11.4785 83.6131 11.2125 83.8247 10.9759C84.0353 10.7394 84.2173 10.4704 84.3708 10.1698C84.5243 9.86929 84.6001 9.55 84.6001 9.20903C84.6001 8.60791 84.3216 8.30734 83.7666 8.30734C83.311 8.30734 82.939 8.56849 82.6487 9.09176L82.5159 9.01687C82.6605 8.71631 82.8662 8.46699 83.1329 8.26891C83.3996 8.07182 83.741 7.97229 84.1583 7.97229C84.548 7.97229 84.853 8.06394 85.0754 8.24822L85.0764 8.2492Z" fill="url(#paint35_linear_556_1489)"/>
<path d="M89.1052 11.4598V12.4334H88.438V11.4598H86.2612V11.2854L88.9714 7.97424H89.1052V10.901H89.2056C89.3561 10.901 89.4683 10.8882 89.5431 10.8636C89.6189 10.838 89.67 10.7966 89.6976 10.7384C89.7251 10.6803 89.7468 10.5916 89.7645 10.4753H89.9062C89.9062 10.9434 89.917 11.2854 89.9407 11.5022C89.8678 11.4854 89.5903 11.4716 89.1072 11.4598H89.1052ZM88.438 10.901V8.9932L86.9146 10.901H88.438Z" fill="url(#paint36_linear_556_1489)"/>
<defs>
<linearGradient id="paint0_linear_556_1489" x1="6.67383" y1="30.093" x2="22.42" y2="30.093" gradientUnits="userSpaceOnUse">
<stop stop-color="#58B6B8"/>
<stop offset="1" stop-color="#2E3192"/>
</linearGradient>
<linearGradient id="paint1_linear_556_1489" x1="21.3777" y1="29.8274" x2="42.2607" y2="29.8274" gradientUnits="userSpaceOnUse">
<stop stop-color="#58B6B8"/>
<stop offset="1" stop-color="#2E3192"/>
</linearGradient>
<linearGradient id="paint2_linear_556_1489" x1="40.5256" y1="33.1918" x2="59.8587" y2="33.1918" gradientUnits="userSpaceOnUse">
<stop stop-color="#58B6B8"/>
<stop offset="1" stop-color="#2E3192"/>
</linearGradient>
<linearGradient id="paint3_linear_556_1489" x1="59.2161" y1="30.093" x2="74.9621" y2="30.093" gradientUnits="userSpaceOnUse">
<stop stop-color="#58B6B8"/>
<stop offset="1" stop-color="#2E3192"/>
</linearGradient>
<linearGradient id="paint4_linear_556_1489" x1="75.4148" y1="29.8274" x2="96.2968" y2="29.8274" gradientUnits="userSpaceOnUse">
<stop stop-color="#58B6B8"/>
<stop offset="1" stop-color="#2E3192"/>
</linearGradient>
<linearGradient id="paint5_linear_556_1489" x1="95.6926" y1="25.3653" x2="104.831" y2="25.3653" gradientUnits="userSpaceOnUse">
<stop stop-color="#58B6B8"/>
<stop offset="1" stop-color="#2E3192"/>
</linearGradient>
<linearGradient id="paint6_linear_556_1489" x1="103.547" y1="27.218" x2="117.141" y2="27.218" gradientUnits="userSpaceOnUse">
<stop stop-color="#58B6B8"/>
<stop offset="1" stop-color="#2E3192"/>
</linearGradient>
<linearGradient id="paint7_linear_556_1489" x1="115.592" y1="25.3653" x2="124.73" y2="25.3653" gradientUnits="userSpaceOnUse">
<stop stop-color="#58B6B8"/>
<stop offset="1" stop-color="#2E3192"/>
</linearGradient>
<linearGradient id="paint8_linear_556_1489" x1="125.034" y1="30.094" x2="140.327" y2="30.094" gradientUnits="userSpaceOnUse">
<stop stop-color="#58B6B8"/>
<stop offset="1" stop-color="#2E3192"/>
</linearGradient>
<linearGradient id="paint9_linear_556_1489" x1="43.5244" y1="51.3761" x2="46.6223" y2="51.3761" gradientUnits="userSpaceOnUse">
<stop stop-color="#58B6B8"/>
<stop offset="1" stop-color="#2E3192"/>
</linearGradient>
<linearGradient id="paint10_linear_556_1489" x1="46.3181" y1="52.3428" x2="49.1847" y2="52.3428" gradientUnits="userSpaceOnUse">
<stop stop-color="#58B6B8"/>
<stop offset="1" stop-color="#2E3192"/>
</linearGradient>
<linearGradient id="paint11_linear_556_1489" x1="48.0955" y1="53.0524" x2="51.4679" y2="53.0524" gradientUnits="userSpaceOnUse">
<stop stop-color="#58B6B8"/>
<stop offset="1" stop-color="#2E3192"/>
</linearGradient>
<linearGradient id="paint12_linear_556_1489" x1="51.0161" y1="51.5205" x2="53.7262" y2="51.5205" gradientUnits="userSpaceOnUse">
<stop stop-color="#58B6B8"/>
<stop offset="1" stop-color="#2E3192"/>
</linearGradient>
<linearGradient id="paint13_linear_556_1489" x1="52.8445" y1="51.8831" x2="56.3015" y2="51.8831" gradientUnits="userSpaceOnUse">
<stop stop-color="#58B6B8"/>
<stop offset="1" stop-color="#2E3192"/>
</linearGradient>
<linearGradient id="paint14_linear_556_1489" x1="56.2632" y1="51.52" x2="59.3728" y2="51.52" gradientUnits="userSpaceOnUse">
<stop stop-color="#58B6B8"/>
<stop offset="1" stop-color="#2E3192"/>
</linearGradient>
<linearGradient id="paint15_linear_556_1489" x1="60.2566" y1="52.3433" x2="62.6597" y2="52.3433" gradientUnits="userSpaceOnUse">
<stop stop-color="#58B6B8"/>
<stop offset="1" stop-color="#2E3192"/>
</linearGradient>
<linearGradient id="paint16_linear_556_1489" x1="62.8279" y1="52.0078" x2="66.4246" y2="52.0078" gradientUnits="userSpaceOnUse">
<stop stop-color="#58B6B8"/>
<stop offset="1" stop-color="#2E3192"/>
</linearGradient>
<linearGradient id="paint17_linear_556_1489" x1="66.0732" y1="52.3433" x2="68.4764" y2="52.3433" gradientUnits="userSpaceOnUse">
<stop stop-color="#58B6B8"/>
<stop offset="1" stop-color="#2E3192"/>
</linearGradient>
<linearGradient id="paint18_linear_556_1489" x1="68.5659" y1="51.5205" x2="73.1192" y2="51.5205" gradientUnits="userSpaceOnUse">
<stop stop-color="#58B6B8"/>
<stop offset="1" stop-color="#2E3192"/>
</linearGradient>
<linearGradient id="paint19_linear_556_1489" x1="72.8584" y1="52.3433" x2="74.5845" y2="52.3433" gradientUnits="userSpaceOnUse">
<stop stop-color="#58B6B8"/>
<stop offset="1" stop-color="#2E3192"/>
</linearGradient>
<linearGradient id="paint20_linear_556_1489" x1="74.7046" y1="51.516" x2="78.4549" y2="51.516" gradientUnits="userSpaceOnUse">
<stop stop-color="#58B6B8"/>
<stop offset="1" stop-color="#2E3192"/>
</linearGradient>
<linearGradient id="paint21_linear_556_1489" x1="78.3367" y1="52.0581" x2="80.3402" y2="52.0581" gradientUnits="userSpaceOnUse">
<stop stop-color="#58B6B8"/>
<stop offset="1" stop-color="#2E3192"/>
</linearGradient>
<linearGradient id="paint22_linear_556_1489" x1="79.99" y1="52.3433" x2="81.8125" y2="52.3433" gradientUnits="userSpaceOnUse">
<stop stop-color="#58B6B8"/>
<stop offset="1" stop-color="#2E3192"/>
</linearGradient>
<linearGradient id="paint23_linear_556_1489" x1="82.0281" y1="53.214" x2="85.8197" y2="53.214" gradientUnits="userSpaceOnUse">
<stop stop-color="#58B6B8"/>
<stop offset="1" stop-color="#2E3192"/>
</linearGradient>
<linearGradient id="paint24_linear_556_1489" x1="85.4436" y1="52.3433" x2="89.929" y2="52.3433" gradientUnits="userSpaceOnUse">
<stop stop-color="#58B6B8"/>
<stop offset="1" stop-color="#2E3192"/>
</linearGradient>
<linearGradient id="paint25_linear_556_1489" x1="89.9626" y1="52.1403" x2="91.6898" y2="52.1403" gradientUnits="userSpaceOnUse">
<stop stop-color="#58B6B8"/>
<stop offset="1" stop-color="#2E3192"/>
</linearGradient>
<linearGradient id="paint26_linear_556_1489" x1="92.8596" y1="51.5205" x2="97.5349" y2="51.5205" gradientUnits="userSpaceOnUse">
<stop stop-color="#58B6B8"/>
<stop offset="1" stop-color="#2E3192"/>
</linearGradient>
<linearGradient id="paint27_linear_556_1489" x1="96.6138" y1="52.3029" x2="100.343" y2="52.3029" gradientUnits="userSpaceOnUse">
<stop stop-color="#58B6B8"/>
<stop offset="1" stop-color="#2E3192"/>
</linearGradient>
<linearGradient id="paint28_linear_556_1489" x1="100.577" y1="51.5195" x2="103.951" y2="51.5195" gradientUnits="userSpaceOnUse">
<stop stop-color="#58B6B8"/>
<stop offset="1" stop-color="#2E3192"/>
</linearGradient>
<linearGradient id="paint29_linear_556_1489" x1="57.061" y1="10.2329" x2="60.2671" y2="10.2329" gradientUnits="userSpaceOnUse">
<stop stop-color="#58B6B8"/>
<stop offset="1" stop-color="#2E3192"/>
</linearGradient>
<linearGradient id="paint30_linear_556_1489" x1="60.9551" y1="10.2408" x2="63.5983" y2="10.2408" gradientUnits="userSpaceOnUse">
<stop stop-color="#58B6B8"/>
<stop offset="1" stop-color="#2E3192"/>
</linearGradient>
<linearGradient id="paint31_linear_556_1489" x1="64.0793" y1="10.2329" x2="67.5571" y2="10.2329" gradientUnits="userSpaceOnUse">
<stop stop-color="#58B6B8"/>
<stop offset="1" stop-color="#2E3192"/>
</linearGradient>
<linearGradient id="paint32_linear_556_1489" x1="67.9961" y1="10.2329" x2="71.8645" y2="10.2329" gradientUnits="userSpaceOnUse">
<stop stop-color="#58B6B8"/>
<stop offset="1" stop-color="#2E3192"/>
</linearGradient>
<linearGradient id="paint33_linear_556_1489" x1="73.5166" y1="10.2024" x2="76.7443" y2="10.2024" gradientUnits="userSpaceOnUse">
<stop stop-color="#58B6B8"/>
<stop offset="1" stop-color="#2E3192"/>
</linearGradient>
<linearGradient id="paint34_linear_556_1489" x1="77.5552" y1="10.2418" x2="81.6833" y2="10.2418" gradientUnits="userSpaceOnUse">
<stop stop-color="#58B6B8"/>
<stop offset="1" stop-color="#2E3192"/>
</linearGradient>
<linearGradient id="paint35_linear_556_1489" x1="82.5159" y1="10.2024" x2="85.7436" y2="10.2024" gradientUnits="userSpaceOnUse">
<stop stop-color="#58B6B8"/>
<stop offset="1" stop-color="#2E3192"/>
</linearGradient>
<linearGradient id="paint36_linear_556_1489" x1="86.2612" y1="10.2039" x2="89.9407" y2="10.2039" gradientUnits="userSpaceOnUse">
<stop stop-color="#58B6B8"/>
<stop offset="1" stop-color="#2E3192"/>
</linearGradient>
</defs>
</svg>
