<svg width="74" height="44" viewBox="0 0 74 44" fill="none" xmlns="http://www.w3.org/2000/svg">
<g clip-path="url(#clip0_88_668)">
<path d="M20.172 41.3975H15.8995C14.4888 41.3975 13.4677 41.2889 12.8229 41.0722C12.1779 40.8554 11.7481 40.4081 11.5061 39.7444C11.2778 39.0668 11.1568 37.9963 11.1568 36.4922V22.3184H15.0262C16.5847 22.3184 17.8073 22.7384 18.6806 23.5649C19.554 24.3915 20.0914 25.6245 20.2929 27.2506C20.4811 28.8902 20.6018 29.8388 20.6422 30.1233H21.9858C21.7572 26.5326 21.6365 23.7412 21.6365 21.7356V18.9037C21.6365 16.8576 21.6903 15.0012 21.8113 13.3479H20.4677L20.2929 14.5267C20.1318 15.8682 19.9303 16.9793 19.6749 17.8601C19.4196 18.7544 18.9226 19.5132 18.1836 20.1637C17.4446 20.814 16.3832 21.1393 15.0262 21.1393H11.1568V7.2098C11.1568 5.71921 11.2778 4.63514 11.5061 3.9576C11.7481 3.29355 12.1779 2.84655 12.8229 2.62979C13.4677 2.41304 14.489 2.30451 15.8995 2.30451H20.7632C21.7709 2.30451 22.6576 2.37227 23.4099 2.50778C23.3428 2.06078 23.3023 1.57271 23.3294 1.11222C21.7305 1.12571 19.9437 1.12571 17.9553 1.12571C10.4583 1.12571 4.80184 1.07145 0.9729 0.949432V2.12824C2.38367 2.20948 3.40474 2.37227 4.04948 2.60252C4.69452 2.84655 5.12436 3.29355 5.36632 3.9576C5.59461 4.63514 5.71559 5.71921 5.71559 7.2098V36.4922C5.71559 37.9963 5.59461 39.0668 5.36632 39.7444C5.12436 40.4084 4.69452 40.8689 4.04948 41.0995C3.40474 41.3297 2.38338 41.4925 0.9729 41.5738V42.7526C4.80213 42.6305 10.4583 42.5763 17.9553 42.5763C19.9303 42.5763 21.7308 42.5763 23.3428 42.5898C23.3294 42.102 23.3695 41.6007 23.4367 41.1399C22.4962 41.3162 21.4079 41.3975 20.172 41.3975ZM41.0107 13.2531C41.6554 13.8899 42.1123 14.3779 42.126 14.3914C42.2065 14.4862 42.2871 14.5812 42.3543 14.6894V8.04983C41.9512 8.56488 41.4943 9.05265 41.0107 9.49965V13.2531ZM28.7468 30.1729C29.6632 31.0592 30.542 31.6629 31.1778 32.0588C31.9257 31.5872 32.6551 31.1159 33.3845 30.6633C31.8696 29.7391 30.8038 28.7395 30.1494 28.0417C29.0646 26.8723 27.6248 25.3444 27.2508 23.0813C27.0824 22.0438 27.1199 20.9501 27.4564 19.7807C29.2144 13.3115 40.0792 11.6141 42.8097 4.67327C43.0714 4.01303 43.5577 2.37227 43.5204 1.12747H41.0144C40.8836 1.86309 40.8461 2.73069 40.6404 3.33403C39.0508 7.9548 32.113 10.5576 28.6159 13.7074C25.9791 16.0838 24.6515 18.894 24.6139 21.7042C24.5392 26.0422 28.1111 29.5502 28.7468 30.1726V30.1729ZM37.2672 16.0249H35.7195V17.1594H38.4136C38.0626 16.762 37.6755 16.3789 37.2672 16.0249ZM28.5828 3.92739C28.6758 4.12244 28.7907 4.31045 28.9123 4.49113H34.1145V3.35661H28.3106C28.3894 3.55166 28.4755 3.73967 28.5828 3.92739ZM34.1145 22.4205H40.3197C40.3627 22.0304 40.3554 21.6543 40.3197 21.2859H34.1145V22.4205ZM30.3169 6.1533C30.5176 6.35568 30.7252 6.5434 30.9404 6.72408H35.7198V5.58956H29.7652C29.9444 5.78461 30.1235 5.97262 30.3169 6.1533ZM27.895 1.69414C27.9092 1.79533 27.9165 1.88215 27.9235 1.97601C27.9377 2.0772 27.9523 2.17106 27.9808 2.26521H32.975V1.1307H27.8589C27.8732 1.2753 27.8804 1.41257 27.8877 1.54983C27.895 1.60028 27.895 1.65102 27.895 1.69443V1.69414ZM31.0097 10.8976C31.3275 11.0295 33.0105 9.78475 33.3845 9.46416C30.8038 7.65357 27.7182 5.48456 27.2133 2.07075C27.1758 1.78771 27.1758 1.46712 27.1386 1.12776H24.6701C24.6139 2.08981 24.8946 3.25894 25.0627 3.82473C25.9791 6.91795 28.5037 9.08667 31.0094 10.8976H31.0097ZM34.9602 19.7901H39.9974C39.8686 19.3997 39.6964 19.0169 39.4815 18.6555H34.9602V19.7901ZM36.9752 11.8215C36.8444 11.8402 34.7871 13.1607 34.7871 13.2927C38.3215 15.5746 41.8372 18.5925 40.9211 23.3265C39.5374 30.5876 27.4753 32.0401 25.1005 39.8107C24.9135 40.4518 24.6142 41.7345 24.6893 42.7528H27.1764C27.2139 42.319 27.195 41.8474 27.2511 41.5459C28.2608 34.5863 40.7341 32.5871 43.0717 25.0617C44.1376 21.6479 43.3896 17.9701 41.1081 15.2731C40.6218 14.7073 37.5176 11.7839 36.9752 11.8215ZM42.354 29.08C41.9375 29.5951 41.494 30.0693 41.0104 30.5028V34.2563C41.5074 34.7306 41.9643 35.2184 42.354 35.7199V29.0803V29.08ZM40.0332 23.9093H34.9602V25.0438H39.5461C39.7468 24.6824 39.9117 24.3067 40.0335 23.9093H40.0332ZM36.9939 32.8135L34.7871 34.2848C37.5549 36.2839 40.1356 37.9438 40.9211 41.5459C40.9958 41.8665 40.9958 42.319 41.052 42.7528H43.5018C43.5952 41.64 43.2026 40.1691 42.9594 39.4898C41.9497 36.5852 39.4623 34.4164 36.9939 32.8132V32.8135ZM67.5861 1.12571C65.0065 1.12571 63.0179 1.07145 61.6074 0.949432V2.12824C63.1659 2.20948 64.3213 2.41275 65.0603 2.75152C65.8127 3.09029 66.2963 3.63232 66.5516 4.37762C66.807 5.12291 66.9413 6.26124 66.9413 7.8058V33.0637L46.2771 0.949432C45.8339 0.989909 45.3637 1.03068 44.8664 1.04417V1.08465C44.9068 2.58873 44.3557 4.41809 44.0602 5.17688C43.8854 5.61039 43.6839 6.0307 43.4556 6.43693L66.9408 43.0503H68.2843V7.8058C68.2843 6.30172 68.4053 5.17688 68.6336 4.4046C68.8619 3.63232 69.3188 3.09029 69.9772 2.75152C70.649 2.41275 71.6567 2.20948 73.027 2.12824V0.949432C71.7372 1.07145 69.9234 1.12571 67.5858 1.12571H67.5861ZM44.853 42.617C45.9683 42.644 46.9088 42.6848 47.6745 42.7526V41.5738C46.4385 41.506 45.4576 41.3705 44.7457 41.1402C44.8262 41.6145 44.8666 42.1293 44.853 42.6173V42.617ZM37.346 27.6742C37.7616 27.3128 38.1487 26.9371 38.4925 26.5397H35.7195V27.6742H37.346ZM27.8883 41.9072C27.881 42.0011 27.874 42.0879 27.8595 42.1891C27.8595 42.2325 27.8595 42.283 27.8522 42.3337C27.845 42.471 27.838 42.6082 27.8234 42.7528H32.9395V41.618H27.9453C27.9165 41.7119 27.9022 41.8061 27.888 41.9072H27.8883ZM30.2814 37.7299C30.088 37.9106 29.9089 38.0986 29.7298 38.2937H35.6843V37.1589H30.905C30.69 37.3396 30.4821 37.5276 30.2814 37.7299ZM28.5473 39.9559C28.44 40.1439 28.3539 40.3316 28.2751 40.5269H34.079V39.3924H28.8768C28.7549 39.5731 28.6403 39.7611 28.5473 39.9562V39.9559Z" fill="url(#paint0_linear_88_668)"/>
</g>
<defs>
<linearGradient id="paint0_linear_88_668" x1="0.9729" y1="22.0001" x2="73.0273" y2="22.0001" gradientUnits="userSpaceOnUse">
<stop stop-color="#58B6B8"/>
<stop offset="1" stop-color="#2E3192"/>
</linearGradient>
<clipPath id="clip0_88_668">
<rect width="74" height="44" fill="white"/>
</clipPath>
</defs>
</svg>
