<svg width="74" height="45" viewBox="0 0 74 45" fill="none" xmlns="http://www.w3.org/2000/svg">
<path d="M20.172 41.8975H15.8995C14.4888 41.8975 13.4677 41.789 12.8229 41.5722C12.1779 41.3555 11.7481 40.9082 11.5061 40.2444C11.2778 39.5669 11.1568 38.4963 11.1568 36.9922V22.8184H15.0262C16.5847 22.8184 17.8073 23.2384 18.6806 24.065C19.554 24.8915 20.0914 26.1246 20.2929 27.7507C20.4811 29.3903 20.6018 30.3388 20.6422 30.6233H21.9858C21.7572 27.0327 21.6365 24.2412 21.6365 22.2356V19.4037C21.6365 17.3576 21.6903 15.5013 21.8113 13.8479H20.4677L20.2929 15.0267C20.1318 16.3683 19.9303 17.4793 19.6749 18.3601C19.4196 19.2544 18.9226 20.0132 18.1836 20.6638C17.4447 21.314 16.3832 21.6393 15.0262 21.6393H11.1568V7.70983C11.1568 6.21924 11.2778 5.13517 11.5061 4.45763C11.7481 3.79358 12.1779 3.34658 12.8229 3.12982C13.4677 2.91307 14.489 2.80455 15.8995 2.80455H20.7632C21.7709 2.80455 22.6576 2.8723 23.4099 3.00781C23.3428 2.56081 23.3023 2.07274 23.3294 1.61225C21.7305 1.62574 19.9437 1.62574 17.9553 1.62574C10.4583 1.62574 4.80184 1.57148 0.9729 1.44946V2.62827C2.38367 2.70951 3.40474 2.8723 4.04948 3.10255C4.69452 3.34658 5.12436 3.79358 5.36632 4.45763C5.59461 5.13517 5.71559 6.21924 5.71559 7.70983V36.9922C5.71559 38.4963 5.59461 39.5669 5.36632 40.2444C5.12436 40.9085 4.69452 41.369 4.04948 41.5995C3.40474 41.8297 2.38338 41.9925 0.9729 42.0738V43.2526C4.80213 43.1306 10.4583 43.0763 17.9553 43.0763C19.9303 43.0763 21.7308 43.0763 23.3428 43.0898C23.3294 42.602 23.3695 42.1008 23.4367 41.64C22.4962 41.8163 21.4079 41.8975 20.172 41.8975ZM41.0107 13.7531C41.6554 14.3899 42.1123 14.878 42.126 14.8915C42.2065 14.9862 42.2871 15.0812 42.3543 15.1895V8.54986C41.9512 9.06491 41.4943 9.55268 41.0107 9.99968V13.7531ZM28.7468 30.6729C29.6632 31.5593 30.542 32.1629 31.1778 32.5589C31.9257 32.0872 32.6551 31.6159 33.3845 31.1633C31.8696 30.2391 30.8038 29.2395 30.1494 28.5417C29.0646 27.3723 27.6248 25.8445 27.2508 23.5813C27.0824 22.5439 27.1199 21.4501 27.4564 20.2807C29.2144 13.8115 40.0792 12.1141 42.8097 5.1733C43.0714 4.51306 43.5577 2.8723 43.5204 1.6275H41.0144C40.8836 2.36312 40.8461 3.23072 40.6404 3.83406C39.0508 8.45483 32.113 11.0576 28.6159 14.2075C25.9791 16.5839 24.6515 19.394 24.6139 22.2042C24.5392 26.5422 28.1111 30.0502 28.7468 30.6726V30.6729ZM37.2672 16.5249H35.7195V17.6594H38.4136C38.0626 17.262 37.6755 16.8789 37.2672 16.5249ZM28.5828 4.42742C28.6758 4.62247 28.7907 4.81048 28.9123 4.99116H34.1145V3.85664H28.3106C28.3894 4.05169 28.4755 4.2397 28.5828 4.42742ZM34.1145 22.9205H40.3197C40.3627 22.5304 40.3554 22.1544 40.3197 21.786H34.1145V22.9205ZM30.3169 6.65333C30.5176 6.85571 30.7252 7.04343 30.9404 7.22411H35.7198V6.08959H29.7652C29.9444 6.28464 30.1235 6.47265 30.3169 6.65333ZM27.895 2.19417C27.9092 2.29536 27.9165 2.38218 27.9235 2.47604C27.9377 2.57723 27.9523 2.67109 27.9808 2.76524H32.975V1.63073H27.8589C27.8732 1.77533 27.8804 1.9126 27.8877 2.04986C27.895 2.10031 27.895 2.15106 27.895 2.19446V2.19417ZM31.0097 11.3976C31.3275 11.5296 33.0105 10.2848 33.3845 9.96419C30.8038 8.1536 27.7182 5.98459 27.2133 2.57078C27.1758 2.28774 27.1758 1.96715 27.1385 1.62779H24.6701C24.6139 2.58984 24.8946 3.75897 25.0627 4.32476C25.9791 7.41799 28.5037 9.5867 31.0094 11.3976H31.0097ZM34.9602 20.2901H39.9974C39.8686 19.8997 39.6964 19.5169 39.4815 19.1556H34.9602V20.2901ZM36.9752 12.3215C36.8444 12.3403 34.7871 13.6608 34.7871 13.7927C38.3215 16.0747 41.8372 19.0925 40.9211 23.8265C39.5374 31.0876 27.4753 32.5401 25.1005 40.3107C24.9135 40.9519 24.6142 42.2345 24.6893 43.2529H27.1764C27.2139 42.8191 27.195 42.3474 27.2511 42.0459C28.2608 35.0863 40.7341 33.0871 43.0717 25.5617C44.1376 22.1479 43.3896 18.4701 41.1081 15.7732C40.6218 15.2074 37.5176 12.284 36.9752 12.3215ZM42.354 29.58C41.9375 30.0951 41.494 30.5694 41.0104 31.0029V34.7563C41.5074 35.2306 41.9643 35.7184 42.354 36.2199V29.5803V29.58ZM40.0332 24.4093H34.9602V25.5438H39.5461C39.7468 25.1825 39.9117 24.8067 40.0335 24.4093H40.0332ZM36.9939 33.3136L34.7871 34.7848C37.5549 36.784 40.1356 38.4438 40.9211 42.0459C40.9958 42.3665 40.9958 42.8191 41.052 43.2529H43.5018C43.5952 42.1401 43.2026 40.6691 42.9594 39.9898C41.9497 37.0852 39.4623 34.9165 36.9939 33.3133V33.3136ZM67.5861 1.62574C65.0065 1.62574 63.0179 1.57148 61.6074 1.44946V2.62827C63.1659 2.70951 64.3213 2.91278 65.0603 3.25155C65.8127 3.59032 66.2963 4.13235 66.5516 4.87765C66.807 5.62294 66.9413 6.76127 66.9413 8.30583V33.5637L46.2771 1.44946C45.8339 1.48994 45.3637 1.53071 44.8664 1.5442V1.58468C44.9068 3.08876 44.3557 4.91812 44.0602 5.67691C43.8854 6.11042 43.6839 6.53073 43.4556 6.93696L66.9408 43.5503H68.2843V8.30583C68.2843 6.80175 68.4053 5.67691 68.6336 4.90463C68.8619 4.13235 69.3188 3.59032 69.9772 3.25155C70.649 2.91278 71.6567 2.70951 73.027 2.62827V1.44946C71.7372 1.57148 69.9234 1.62574 67.5858 1.62574H67.5861ZM44.853 43.1171C45.9683 43.1441 46.9088 43.1848 47.6745 43.2526V42.0738C46.4385 42.006 45.4576 41.8705 44.7457 41.6403C44.8262 42.1146 44.8666 42.6293 44.853 43.1174V43.1171ZM37.346 28.1742C37.7616 27.8129 38.1487 27.4371 38.4925 27.0397H35.7195V28.1742H37.346ZM27.8883 42.4073C27.881 42.5011 27.874 42.5879 27.8595 42.6891C27.8595 42.7326 27.8595 42.783 27.8522 42.8337C27.845 42.971 27.838 43.1083 27.8234 43.2529H32.9395V42.1181H27.9453C27.9165 42.2119 27.9022 42.3061 27.888 42.4073H27.8883ZM30.2814 38.23C30.088 38.4107 29.9089 38.5987 29.7298 38.7937H35.6843V37.6589H30.905C30.69 37.8396 30.4821 38.0276 30.2814 38.23ZM28.5473 40.4559C28.44 40.6439 28.3539 40.8316 28.2751 41.027H34.079V39.8925H28.8768C28.7549 40.0731 28.6403 40.2611 28.5473 40.4562V40.4559Z" fill="url(#paint0_linear_229_31)"/>
<defs>
<linearGradient id="paint0_linear_229_31" x1="0.9729" y1="22.5002" x2="73.0273" y2="22.5002" gradientUnits="userSpaceOnUse">
<stop stop-color="#0FB5E8"/>
<stop offset="0.5" stop-color="#670A78"/>
<stop offset="1" stop-color="#0B0129"/>
</linearGradient>
</defs>
</svg>
