<svg width="74" height="44" viewBox="0 0 74 44" fill="none" xmlns="http://www.w3.org/2000/svg">
<g clip-path="url(#clip0_88_158)">
<path d="M20.172 41.3975H15.8995C14.4888 41.3975 13.4677 41.289 12.8229 41.0722C12.1779 40.8555 11.7481 40.4082 11.5061 39.7444C11.2778 39.0669 11.1568 37.9963 11.1568 36.4922V22.3184H15.0262C16.5847 22.3184 17.8073 22.7384 18.6806 23.565C19.554 24.3915 20.0914 25.6246 20.2929 27.2507C20.4811 28.8903 20.6018 29.8388 20.6422 30.1233H21.9858C21.7572 26.5327 21.6365 23.7412 21.6365 21.7356V18.9037C21.6365 16.8576 21.6903 15.0013 21.8113 13.3479H20.4677L20.2929 14.5267C20.1318 15.8683 19.9303 16.9793 19.6749 17.8601C19.4196 18.7544 18.9226 19.5132 18.1836 20.1638C17.4446 20.814 16.3832 21.1393 15.0262 21.1393H11.1568V7.20983C11.1568 5.71924 11.2778 4.63517 11.5061 3.95763C11.7481 3.29358 12.1779 2.84658 12.8229 2.62982C13.4677 2.41307 14.489 2.30455 15.8995 2.30455H20.7632C21.7709 2.30455 22.6576 2.3723 23.4099 2.50781C23.3428 2.06081 23.3023 1.57274 23.3294 1.11225C21.7305 1.12574 19.9437 1.12574 17.9553 1.12574C10.4583 1.12574 4.80184 1.07148 0.9729 0.949463V2.12827C2.38367 2.20951 3.40474 2.3723 4.04948 2.60255C4.69452 2.84658 5.12435 3.29358 5.36632 3.95763C5.59461 4.63517 5.71559 5.71924 5.71559 7.20983V36.4922C5.71559 37.9963 5.59461 39.0669 5.36632 39.7444C5.12435 40.4085 4.69452 40.869 4.04948 41.0995C3.40474 41.3298 2.38338 41.4925 0.9729 41.5738V42.7526C4.80213 42.6306 10.4583 42.5763 17.9553 42.5763C19.9303 42.5763 21.7308 42.5763 23.3428 42.5898C23.3294 42.102 23.3695 41.6008 23.4367 41.14C22.4962 41.3163 21.4079 41.3975 20.172 41.3975Z" fill="black"/>
<path d="M44.8529 42.6171C45.9682 42.644 46.9087 42.6848 47.6745 42.7526V41.5738C46.4385 41.506 45.4575 41.3705 44.7456 41.1403C44.8262 41.6145 44.8666 42.1293 44.8529 42.6174V42.6171Z" fill="black"/>
<path d="M41.0105 13.2531C41.6552 13.8899 42.1121 14.3779 42.1258 14.3914C42.2063 14.4862 42.2869 14.5812 42.3541 14.6894V8.0498C41.951 8.56485 41.4941 9.05262 41.0105 9.49963V13.2531Z" fill="black"/>
<path d="M67.5861 1.12574C65.0065 1.12574 63.0179 1.07148 61.6074 0.949463V2.12827C63.1659 2.20951 64.3213 2.41278 65.0603 2.75155C65.8126 3.09032 66.2963 3.63235 66.5516 4.37765C66.8069 5.12294 66.9413 6.26127 66.9413 7.80583V33.0638L46.2771 0.949463C45.8339 0.989939 45.3636 1.03071 44.8663 1.0442V1.08468C44.9068 2.58876 44.3557 4.41812 44.0602 5.17691C43.8854 5.61042 43.6839 6.03073 43.4556 6.43696L66.9407 43.0503H68.2843V7.80583C68.2843 6.30175 68.4053 5.17691 68.6336 4.40463C68.8619 3.63235 69.3188 3.09032 69.9772 2.75155C70.649 2.41278 71.6567 2.20951 73.027 2.12827V0.949463C71.7372 1.07148 69.9234 1.12574 67.5858 1.12574H67.5861Z" fill="black"/>
<path d="M42.3538 29.08C41.9374 29.595 41.4939 30.0693 41.0103 30.5028V34.2563C41.5073 34.7305 41.9641 35.2183 42.3538 35.7199V29.0802V29.08Z" fill="black"/>
<path d="M36.9751 11.8215C36.8442 11.8403 34.7869 13.1608 34.7869 13.2928C38.3213 15.5747 41.837 18.5925 40.9209 23.3265C39.5372 30.5877 27.4751 32.0401 25.1003 39.8107C24.9133 40.4519 24.614 41.7345 24.6891 42.7529H27.1762C27.2137 42.3191 27.1948 41.8475 27.2509 41.5459C28.2606 34.5863 40.7339 32.5871 43.0715 25.0617C44.1374 21.6479 43.3894 17.9701 41.1079 15.2732C40.6216 14.7074 37.5174 11.784 36.9751 11.8215Z" fill="black"/>
<path d="M28.7468 30.1728C29.6632 31.0592 30.542 31.6629 31.1778 32.0588C31.9257 31.5872 32.6551 31.1158 33.3845 30.6633C31.8696 29.739 30.8038 28.7394 30.1494 28.0417C29.0647 26.8722 27.6248 25.3444 27.2508 23.0812C27.0824 22.0438 27.1199 20.9501 27.4564 19.7807C29.2144 13.3115 40.0792 11.6141 42.8097 4.67324C43.0714 4.013 43.5577 2.37224 43.5204 1.12744H41.0144C40.8836 1.86306 40.8461 2.73066 40.6405 3.334C39.0508 7.95477 32.113 10.5576 28.6159 13.7074C25.9791 16.0838 24.6515 18.894 24.6139 21.7042C24.5392 26.0422 28.1111 29.5501 28.7468 30.1726V30.1728Z" fill="black"/>
<path d="M31.0095 10.8976C31.3273 11.0296 33.0103 9.78479 33.3843 9.46421C30.8036 7.65362 27.718 5.4846 27.2131 2.07079C27.1756 1.78775 27.1756 1.46716 27.1384 1.12781H24.6699C24.6138 2.08986 24.8944 3.25898 25.0625 3.82477C25.9789 6.918 28.5035 9.08672 31.0092 10.8976H31.0095Z" fill="black"/>
<path d="M36.9939 32.8135L34.7871 34.2848C37.5548 36.2839 40.1356 37.9438 40.9211 41.5459C40.9958 41.8665 40.9958 42.319 41.0519 42.7529H43.5018C43.5952 41.64 43.2026 40.1691 42.9594 39.4898C41.9497 36.5852 39.4623 34.4165 36.9939 32.8132V32.8135Z" fill="black"/>
<path d="M27.8949 1.69418C27.9092 1.79537 27.9165 1.88219 27.9234 1.97605C27.9377 2.07724 27.9522 2.1711 27.9807 2.26525H32.975V1.13074H27.8589C27.8731 1.27534 27.8804 1.41261 27.8877 1.54987C27.8949 1.60032 27.8949 1.65107 27.8949 1.69448V1.69418Z" fill="black"/>
<path d="M28.5828 3.92734C28.6758 4.12239 28.7907 4.3104 28.9123 4.49108H34.1144V3.35657H28.3105C28.3894 3.55162 28.4754 3.73963 28.5828 3.92734Z" fill="black"/>
<path d="M30.3168 6.15334C30.5175 6.35572 30.7251 6.54344 30.9403 6.72411H35.7197V5.5896H29.7651C29.9443 5.78465 30.1234 5.97266 30.3168 6.15334Z" fill="black"/>
<path d="M27.8881 41.9072C27.8808 42.0011 27.8738 42.0879 27.8593 42.1891C27.8593 42.2325 27.8593 42.283 27.852 42.3337C27.8448 42.471 27.8378 42.6082 27.8232 42.7528H32.9393V41.618H27.9451C27.9163 41.7119 27.9021 41.8061 27.8878 41.9072H27.8881Z" fill="black"/>
<path d="M28.5471 39.9559C28.4398 40.1439 28.3537 40.3316 28.2749 40.527H34.0788V39.3925H28.8766C28.7548 39.5731 28.6402 39.7611 28.5471 39.9562V39.9559Z" fill="black"/>
<path d="M30.2814 37.73C30.088 37.9107 29.9089 38.0987 29.7297 38.2937H35.6843V37.1589H30.9049C30.69 37.3396 30.4821 37.5276 30.2814 37.73Z" fill="black"/>
<path d="M37.2672 16.0249H35.7195V17.1594H38.4136C38.0626 16.762 37.6755 16.3789 37.2672 16.0249Z" fill="black"/>
<path d="M34.96 19.79H39.9973C39.8684 19.3996 39.6963 19.0169 39.4813 18.6555H34.96V19.79Z" fill="black"/>
<path d="M37.346 27.6742C37.7616 27.3128 38.1487 26.9371 38.4924 26.5397H35.7195V27.6742H37.346Z" fill="black"/>
<path d="M40.033 23.9093H34.96V25.0438H39.5459C39.7466 24.6825 39.9115 24.3067 40.0333 23.9093H40.033Z" fill="black"/>
<path d="M34.1143 22.4204H40.3195C40.3625 22.0303 40.3553 21.6543 40.3195 21.2859H34.1143V22.4204Z" fill="black"/>
</g>
<defs>
<clipPath id="clip0_88_158">
<rect width="74" height="44" fill="white"/>
</clipPath>
</defs>
</svg>
