<svg width="221" height="131" viewBox="0 0 221 131" fill="none" xmlns="http://www.w3.org/2000/svg">
<g clip-path="url(#clip0_88_666)" filter="url(#filter0_d_88_666)">
<path d="M123.122 35.7925C125.013 37.645 126.352 39.0648 126.392 39.104C126.629 39.3796 126.865 39.6561 127.062 39.9709V20.6557C125.88 22.154 124.54 23.573 123.122 24.8734V35.7925ZM112.145 43.8558H107.606V47.1562H115.506C114.477 46.0001 113.342 44.8857 112.145 43.8558ZM105.379 54.8091H120.151C119.773 53.6734 119.268 52.5599 118.638 51.5087H105.379V54.8091ZM102.899 62.4611H121.096C121.222 61.3263 121.201 60.2324 121.096 59.1607H102.899V62.4611ZM87.1589 85.0136C89.8461 87.5922 92.4233 89.3482 94.2875 90.5001C96.481 89.1281 98.6198 87.7569 100.759 86.4403C96.3164 83.7517 93.1908 80.8438 91.272 78.8139C88.091 75.4119 83.8688 70.9673 82.772 64.3835C82.2783 61.3656 82.3883 58.1838 83.375 54.7818C88.5302 35.9623 120.39 31.0245 128.397 10.833C129.165 8.91229 130.591 4.13916 130.482 0.517928H123.133C122.749 2.6579 122.639 5.18184 122.036 6.937C117.375 20.3792 97.0302 27.9511 86.7751 37.1142C79.0427 44.0273 75.1496 52.2024 75.0396 60.3775C74.8204 72.9972 85.2947 83.2022 87.1589 85.0128V85.0136ZM91.7632 15.1385C92.3517 15.7273 92.9606 16.2734 93.5917 16.799H107.607V13.4986H90.1454C90.6708 14.066 91.1961 14.6129 91.7632 15.1385ZM86.6779 8.66314C86.9508 9.23056 87.2877 9.7775 87.6441 10.3031H102.899V7.0027H85.8797C86.1108 7.57012 86.3632 8.11706 86.6779 8.66314ZM93.7946 28.94C94.7267 29.324 99.6619 25.7027 100.759 24.7701C93.1908 19.503 84.1425 13.1931 82.662 3.26201C82.552 2.43862 82.552 1.506 82.4429 0.518782H75.2042C75.0396 3.31747 75.8626 6.71856 76.3555 8.3645C79.0427 17.363 86.446 23.672 93.7938 28.94H93.7946ZM62.0138 117.667H49.4852C45.3482 117.667 42.354 117.351 40.4633 116.721C38.5718 116.09 37.3113 114.789 36.6018 112.858C35.9323 110.887 35.5776 107.773 35.5776 103.397V62.1642H46.9242C51.4944 62.1642 55.0796 63.3861 57.6406 65.7906C60.2016 68.195 61.7776 71.7822 62.3686 76.5126C62.9203 81.2823 63.2743 84.0418 63.3928 84.8694H67.3328C66.6625 74.4238 66.3086 66.3034 66.3086 60.4688V52.2306C66.3086 46.2782 66.4663 40.8779 66.8211 36.0681H62.8811L62.3686 39.4974C61.8961 43.4002 61.3051 46.6323 60.5564 49.1947C59.8076 51.7963 58.3501 54.0036 56.1831 55.8962C54.0162 57.7878 50.9034 58.7341 46.9242 58.7341H35.5776V18.212C35.5776 13.8757 35.9323 10.7221 36.6018 8.75103C37.3113 6.81925 38.5718 5.51888 40.4633 4.88832C42.354 4.25776 45.3491 3.94206 49.4852 3.94206H63.7476C66.7026 3.94206 69.3028 4.13916 71.509 4.53337C71.312 3.233 71.1935 1.81318 71.2728 0.473559C66.584 0.512809 61.3443 0.512809 55.5137 0.512809C33.5291 0.512809 16.942 0.354956 5.71387 0V3.42925C9.85085 3.6656 12.8451 4.13916 14.7357 4.80897C16.6273 5.51888 17.8877 6.81925 18.5973 8.75103C19.2667 10.7221 19.6215 13.8757 19.6215 18.212V103.397C19.6215 107.773 19.2667 110.887 18.5973 112.858C17.8877 114.79 16.6273 116.129 14.7357 116.8C12.8451 117.47 9.84999 117.943 5.71387 118.18V121.609C16.9428 121.254 33.5291 121.096 55.5137 121.096C61.3051 121.096 66.5849 121.096 71.312 121.136C71.2728 119.717 71.3904 118.258 71.5874 116.918C68.8295 117.431 65.6382 117.667 62.0138 117.667ZM84.661 2.16643C84.7028 2.4608 84.7241 2.71337 84.7446 2.98641C84.7864 3.28078 84.829 3.55383 84.9126 3.82772H99.5579V0.527314H84.5553C84.5971 0.947971 84.6184 1.3473 84.6397 1.74662C84.661 1.89338 84.661 2.041 84.661 2.16728V2.16643ZM86.5739 113.473C86.2592 114.02 86.0068 114.566 85.7756 115.135H102.795V111.834H87.5401C87.1828 112.36 86.8468 112.907 86.5739 113.474V113.473ZM111.288 31.6278C110.905 31.6824 104.872 35.5237 104.872 35.9077C115.236 42.5461 125.546 51.3253 122.859 65.0969C118.802 86.2201 83.4304 90.4455 76.4664 113.051C75.918 114.916 75.0405 118.647 75.2605 121.61H82.5537C82.6637 120.348 82.6083 118.976 82.7729 118.099C85.7338 97.8526 122.311 92.0368 129.166 70.1447C132.291 60.2137 130.098 49.5146 123.408 41.6689C121.982 40.023 112.879 31.5185 111.288 31.6278ZM134.389 121.215C137.66 121.293 140.418 121.412 142.663 121.609V118.18C139.039 117.983 136.162 117.589 134.075 116.919C134.311 118.298 134.429 119.796 134.389 121.216V121.215ZM201.052 0.512809C193.488 0.512809 187.657 0.354956 183.52 0V3.42925C188.091 3.6656 191.479 4.25691 193.646 5.24243C195.852 6.22794 197.27 7.80476 198.019 9.9729C198.768 12.141 199.162 15.4525 199.162 19.9458V93.4234L138.565 0C137.266 0.11775 135.887 0.236353 134.428 0.275603V0.393353C134.547 4.76887 132.931 10.0906 132.064 12.298C131.552 13.5591 130.961 14.7819 130.291 15.9636L199.16 122.475H203.1V19.9458C203.1 15.5703 203.455 12.298 204.124 10.0514C204.794 7.80476 206.134 6.22794 208.064 5.24243C210.034 4.25691 212.989 3.6656 217.008 3.42925V0C213.226 0.354956 207.907 0.512809 201.052 0.512809H201.052ZM127.061 81.8344C125.84 83.3327 124.539 84.7124 123.121 85.9736V96.8927C124.578 98.2724 125.918 99.6914 127.061 101.15V81.8353V81.8344ZM120.256 66.7923H105.379V70.0927H118.827C119.416 69.0415 119.899 67.9485 120.256 66.7923H120.256ZM84.6414 119.15C84.6201 119.423 84.5996 119.676 84.557 119.97C84.557 120.096 84.557 120.243 84.5357 120.391C84.5143 120.79 84.4939 121.189 84.4512 121.61H99.4539V118.309H84.8086C84.7241 118.582 84.6823 118.856 84.6405 119.15H84.6414ZM111.343 92.6955L104.872 96.9755C112.988 102.791 120.556 107.62 122.859 118.099C123.078 119.031 123.078 120.348 123.243 121.61H130.427C130.701 118.373 129.55 114.094 128.837 112.117C125.876 103.668 118.582 97.3586 111.343 92.6947V92.6955ZM112.376 77.7447C113.594 76.6935 114.729 75.6005 115.737 74.4443H107.606V77.7447H112.376ZM91.6592 106.998C91.0921 107.523 90.5667 108.07 90.0414 108.638H107.503V105.337H93.4876C92.8574 105.862 92.2476 106.409 91.6592 106.998Z" fill="white"/>
</g>
<defs>
<filter id="filter0_d_88_666" x="-4" y="0" width="225" height="136" filterUnits="userSpaceOnUse" color-interpolation-filters="sRGB">
<feFlood flood-opacity="0" result="BackgroundImageFix"/>
<feColorMatrix in="SourceAlpha" type="matrix" values="0 0 0 0 0 0 0 0 0 0 0 0 0 0 0 0 0 0 127 0" result="hardAlpha"/>
<feOffset dy="4"/>
<feGaussianBlur stdDeviation="2"/>
<feComposite in2="hardAlpha" operator="out"/>
<feColorMatrix type="matrix" values="0 0 0 0 0 0 0 0 0 0 0 0 0 0 0 0 0 0 0.25 0"/>
<feBlend mode="normal" in2="BackgroundImageFix" result="effect1_dropShadow_88_666"/>
<feBlend mode="normal" in="SourceGraphic" in2="effect1_dropShadow_88_666" result="shape"/>
</filter>
<clipPath id="clip0_88_666">
<rect width="217" height="128" fill="white"/>
</clipPath>
</defs>
</svg>
